<?xml version="1.0" encoding="UTF-8"?>
<!DOCTYPE svg PUBLIC "-//W3C//DTD SVG 1.1//EN" "http://www.w3.org/Graphics/SVG/1.1/DTD/svg11.dtd">
<svg xmlns="http://www.w3.org/2000/svg" version="1.1" width="500px" height="500px" style="shape-rendering:geometricPrecision; text-rendering:geometricPrecision; image-rendering:optimizeQuality; fill-rule:evenodd; clip-rule:evenodd" xmlns:xlink="http://www.w3.org/1999/xlink">
<g><path style="opacity:1" fill="#fefefe" d="M -0.5,-0.5 C 74.1667,-0.5 148.833,-0.5 223.5,-0.5C 208.555,38.8305 193.888,77.1638 179.5,114.5C 179.167,114.5 178.833,114.5 178.5,114.5C 176.164,111.824 173.831,109.158 171.5,106.5C 170.479,107.002 170.312,107.668 171,108.5C 173.068,110.396 174.901,112.396 176.5,114.5C 153.331,115.554 129.998,115.554 106.5,114.5C 106.5,117.167 106.5,119.833 106.5,122.5C 116.173,123.343 123.34,128.01 128,136.5C 131.673,142.841 134.506,149.508 136.5,156.5C 128.906,157.284 129.239,158.284 137.5,159.5C 142.267,169.455 146.267,179.789 149.5,190.5C 149.312,193.206 148.312,195.539 146.5,197.5C 140.929,197.947 135.596,199.28 130.5,201.5C 130.833,201.833 131.167,202.167 131.5,202.5C 136.086,201.081 140.753,200.081 145.5,199.5C 140.941,213.648 135.775,227.981 130,242.5C 125.883,253.401 121.217,264.067 116,274.5C 109.991,284.848 101.324,291.848 90,295.5C 89.5026,298.146 89.3359,300.813 89.5,303.5C 116.827,302.361 144.161,302.361 171.5,303.5C 171.5,300.833 171.5,298.167 171.5,295.5C 140.062,296.251 128.562,281.584 137,251.5C 140.26,239.528 144.76,228.194 150.5,217.5C 153.167,216.5 155.833,215.5 158.5,214.5C 161.296,219.105 163.296,224.105 164.5,229.5C 156.493,235.821 156.826,236.488 165.5,231.5C 168.071,236.537 170.071,241.871 171.5,247.5C 171.461,248.583 171.127,249.583 170.5,250.5C 171.257,251.773 171.923,251.773 172.5,250.5C 190.531,294.909 208.198,339.575 225.5,384.5C 230.03,386.651 232.697,385.318 233.5,380.5C 234.376,380.369 235.043,380.702 235.5,381.5C 236.563,386.385 239.397,387.719 244,385.5C 254.567,357.948 265.4,330.615 276.5,303.5C 306.768,302.346 337.101,302.346 367.5,303.5C 367.5,300.833 367.5,298.167 367.5,295.5C 357.318,294.827 349.485,290.16 344,281.5C 342.92,279.004 341.586,276.67 340,274.5C 331.237,252.027 322.404,229.694 313.5,207.5C 313.935,204.843 314.935,202.509 316.5,200.5C 320.215,201.628 323.882,201.962 327.5,201.5C 324.214,200.245 320.88,199.245 317.5,198.5C 318.798,192.441 320.798,186.608 323.5,181C 331.188,180.831 338.855,180.331 346.5,179.5C 346.291,178.914 345.957,178.414 345.5,178C 338.842,177.5 332.175,177.334 325.5,177.5C 329.061,164.983 333.894,152.983 340,141.5C 345.291,132.202 352.957,125.869 363,122.5C 363.497,120.19 363.663,117.857 363.5,115.5C 359.5,115.5 355.5,115.5 351.5,115.5C 328.333,115.779 305,115.445 281.5,114.5C 283.279,112.454 284.946,110.287 286.5,108C 286.167,107.833 285.833,107.667 285.5,107.5C 283.265,109.638 281.265,111.971 279.5,114.5C 279.167,114.5 278.833,114.5 278.5,114.5C 263.699,78.172 248.699,39.8387 233.5,-0.5C 322.167,-0.5 410.833,-0.5 499.5,-0.5C 499.5,166.167 499.5,332.833 499.5,499.5C 332.833,499.5 166.167,499.5 -0.5,499.5C -0.5,332.833 -0.5,166.167 -0.5,-0.5 Z"/></g>
<g><path style="opacity:1" fill="#737373" d="M 223.5,-0.5 C 226.833,-0.5 230.167,-0.5 233.5,-0.5C 248.699,39.8387 263.699,78.172 278.5,114.5C 278.5,117.167 278.5,119.833 278.5,122.5C 279.5,122.5 280.5,122.5 281.5,122.5C 282.263,126.137 283.597,129.47 285.5,132.5C 285.328,133.492 285.662,134.158 286.5,134.5C 288.895,143.733 292.062,152.733 296,161.5C 298.597,165.705 301.431,169.705 304.5,173.5C 304.5,174.167 304.5,174.833 304.5,175.5C 303.206,174.71 302.039,173.71 301,172.5C 300.992,174.821 301.825,176.821 303.5,178.5C 296.128,197.23 288.795,215.896 281.5,234.5C 279.6,227.124 276.934,220.124 273.5,213.5C 273.5,212.833 273.167,212.5 272.5,212.5C 272.804,211.85 273.137,211.183 273.5,210.5C 272.049,206.097 270.049,202.097 267.5,198.5C 267.218,197.222 266.551,196.222 265.5,195.5C 266.417,193.338 266.417,191.005 265.5,188.5C 260.637,188.181 255.97,188.514 251.5,189.5C 250.039,188.314 248.705,188.314 247.5,189.5C 245.958,188.699 244.292,188.366 242.5,188.5C 241.508,188.328 240.842,188.662 240.5,189.5C 239.833,189.5 239.167,189.5 238.5,189.5C 237.652,188.375 236.652,188.375 235.5,189.5C 230.833,188.167 226.167,188.167 221.5,189.5C 220.883,189.389 220.383,189.056 220,188.5C 219.722,189.416 219.222,190.082 218.5,190.5C 218.5,189.833 218.167,189.5 217.5,189.5C 216.652,188.375 215.652,188.375 214.5,189.5C 212.95,188.28 211.284,188.28 209.5,189.5C 208.295,188.314 206.961,188.314 205.5,189.5C 203.393,188.532 201.059,188.198 198.5,188.5C 196.928,185.785 195.928,182.785 195.5,179.5C 197.216,179.371 198.883,179.038 200.5,178.5C 219.329,179.662 238.329,179.829 257.5,179C 253.205,178.431 249.205,177.264 245.5,175.5C 247.262,175.357 248.929,175.691 250.5,176.5C 251.287,175.758 251.953,174.925 252.5,174C 252.272,173.601 251.938,173.435 251.5,173.5C 253.792,172.66 256.125,171.66 258.5,170.5C 258.121,168.787 257.121,167.787 255.5,167.5C 256.506,166.604 256.506,165.938 255.5,165.5C 255.598,163.447 254.931,161.78 253.5,160.5C 253.5,159.833 253.167,159.5 252.5,159.5C 253.601,157.012 252.934,155.012 250.5,153.5C 250.672,152.508 250.338,151.842 249.5,151.5C 249.804,150.85 250.137,150.183 250.5,149.5C 249.696,146.967 248.363,144.967 246.5,143.5C 247.817,141.124 247.15,139.457 244.5,138.5C 245.521,136.477 245.188,134.477 243.5,132.5C 242.552,131.022 241.219,130.022 239.5,129.5C 240.675,129.719 241.675,129.386 242.5,128.5C 238.569,118.539 234.735,108.539 231,98.5C 230.5,105.826 230.334,113.159 230.5,120.5C 229.5,120.5 228.5,120.5 227.5,120.5C 227.667,109.495 227.5,98.495 227,87.5C 222.716,75.3089 218.049,63.3089 213,51.5C 209.996,58.3454 207.496,65.3454 205.5,72.5C 204.596,73.209 204.263,74.209 204.5,75.5C 199.865,84.731 196.198,94.3977 193.5,104.5C 192.662,104.842 192.328,105.508 192.5,106.5C 190.733,108.792 189.733,111.458 189.5,114.5C 186.167,114.5 182.833,114.5 179.5,114.5C 193.888,77.1638 208.555,38.8305 223.5,-0.5 Z"/></g>
<g><path style="opacity:1" fill="#fafafa" d="M 239.5,129.5 C 218.998,127.626 200.331,132.626 183.5,144.5C 181.544,142.968 180.544,140.801 180.5,138C 181.466,134.77 182.633,131.603 184,128.5C 184.671,127.748 185.504,127.414 186.5,127.5C 187.322,129.728 188.655,130.395 190.5,129.5C 189.807,128.482 189.141,127.482 188.5,126.5C 192.976,123.308 197.643,122.975 202.5,125.5C 203.386,124.675 203.719,123.675 203.5,122.5C 204.833,122.5 206.167,122.5 207.5,122.5C 207.5,120.167 207.5,117.833 207.5,115.5C 204.391,115.736 201.391,115.403 198.5,114.5C 197.341,110.849 195.674,107.515 193.5,104.5C 196.198,94.3977 199.865,84.731 204.5,75.5C 207.657,90.9535 211.324,106.287 215.5,121.5C 215.833,120.833 216.167,120.167 216.5,119.5C 212.511,103.891 208.844,88.2244 205.5,72.5C 207.496,65.3454 209.996,58.3454 213,51.5C 218.049,63.3089 222.716,75.3089 227,87.5C 227.5,98.495 227.667,109.495 227.5,120.5C 228.5,120.5 229.5,120.5 230.5,120.5C 230.334,113.159 230.5,105.826 231,98.5C 234.735,108.539 238.569,118.539 242.5,128.5C 241.675,129.386 240.675,129.719 239.5,129.5 Z"/></g>
<g><path style="opacity:1" fill="#ecedee" d="M 192.5,106.5 C 194.008,108.181 195.008,110.181 195.5,112.5C 195.5,113.167 195.5,113.833 195.5,114.5C 193.5,114.5 191.5,114.5 189.5,114.5C 189.733,111.458 190.733,108.792 192.5,106.5 Z"/></g>
<g><path style="opacity:1" fill="#2a2a2a" d="M 193.5,104.5 C 195.674,107.515 197.341,110.849 198.5,114.5C 198.565,114.938 198.399,115.272 198,115.5C 197.148,114.429 196.315,113.429 195.5,112.5C 195.008,110.181 194.008,108.181 192.5,106.5C 192.328,105.508 192.662,104.842 193.5,104.5 Z"/></g>
<g><path style="opacity:1" fill="#212225" d="M 281.5,114.5 C 280.833,114.5 280.167,114.5 279.5,114.5C 281.265,111.971 283.265,109.638 285.5,107.5C 285.833,107.667 286.167,107.833 286.5,108C 284.946,110.287 283.279,112.454 281.5,114.5 Z"/></g>
<g><path style="opacity:1" fill="#333333" d="M 178.5,114.5 C 177.833,114.5 177.167,114.5 176.5,114.5C 174.901,112.396 173.068,110.396 171,108.5C 170.312,107.668 170.479,107.002 171.5,106.5C 173.831,109.158 176.164,111.824 178.5,114.5 Z"/></g>
<g><path style="opacity:1" fill="#054bad" d="M 176.5,114.5 C 177.167,114.5 177.833,114.5 178.5,114.5C 178.833,114.5 179.167,114.5 179.5,114.5C 182.833,114.5 186.167,114.5 189.5,114.5C 191.5,114.5 193.5,114.5 195.5,114.5C 195.5,117.167 195.5,119.833 195.5,122.5C 187.416,122.132 179.749,123.632 172.5,127C 170.059,129.653 169.059,132.82 169.5,136.5C 169.561,139.903 170.061,143.236 171,146.5C 194.283,209.729 218.116,272.729 242.5,335.5C 244.699,330.896 246.699,326.229 248.5,321.5C 255.5,302.833 262.5,284.167 269.5,265.5C 270.404,264.791 270.737,263.791 270.5,262.5C 273.679,256.126 276.346,249.46 278.5,242.5C 278.833,241.833 279.167,241.167 279.5,240.5C 280.363,238.579 281.029,236.579 281.5,234.5C 288.795,215.896 296.128,197.23 303.5,178.5C 304.11,177.609 304.443,176.609 304.5,175.5C 304.5,174.833 304.5,174.167 304.5,173.5C 306.584,170.199 307.918,166.532 308.5,162.5C 308.833,161.833 309.167,161.167 309.5,160.5C 311.047,153.935 311.714,147.268 311.5,140.5C 311.768,138.901 311.434,137.568 310.5,136.5C 308.315,130.317 303.982,126.65 297.5,125.5C 297.158,124.662 296.492,124.328 295.5,124.5C 290.988,123.019 286.322,122.352 281.5,122.5C 280.5,122.5 279.5,122.5 278.5,122.5C 278.5,119.833 278.5,117.167 278.5,114.5C 278.833,114.5 279.167,114.5 279.5,114.5C 280.167,114.5 280.833,114.5 281.5,114.5C 305,115.445 328.333,115.779 351.5,115.5C 351.5,117.833 351.5,120.167 351.5,122.5C 340.243,125.246 332.076,131.913 327,142.5C 324.007,147.988 321.507,153.655 319.5,159.5C 314.94,169.954 310.94,180.62 307.5,191.5C 299.928,209.658 292.595,227.991 285.5,246.5C 285.5,247.167 285.5,247.833 285.5,248.5C 284.599,249.29 283.932,250.29 283.5,251.5C 277.882,265.735 272.549,280.068 267.5,294.5C 266.514,296.426 265.514,298.426 264.5,300.5C 260.215,311.402 256.215,322.402 252.5,333.5C 245.928,348.99 239.595,364.657 233.5,380.5C 232.697,385.318 230.03,386.651 225.5,384.5C 208.198,339.575 190.531,294.909 172.5,250.5C 172.737,249.209 172.404,248.209 171.5,247.5C 170.071,241.871 168.071,236.537 165.5,231.5C 165.672,230.508 165.338,229.842 164.5,229.5C 163.296,224.105 161.296,219.105 158.5,214.5C 158.5,213.833 158.5,213.167 158.5,212.5C 157.499,209.828 156.499,207.162 155.5,204.5C 153.677,199.68 151.677,195.013 149.5,190.5C 146.267,179.789 142.267,169.455 137.5,159.5C 137.443,158.391 137.11,157.391 136.5,156.5C 134.506,149.508 131.673,142.841 128,136.5C 123.34,128.01 116.173,123.343 106.5,122.5C 106.5,119.833 106.5,117.167 106.5,114.5C 129.998,115.554 153.331,115.554 176.5,114.5 Z"/></g>
<g><path style="opacity:1" fill="#a2a3a4" d="M 195.5,112.5 C 196.315,113.429 197.148,114.429 198,115.5C 198.399,115.272 198.565,114.938 198.5,114.5C 201.391,115.403 204.391,115.736 207.5,115.5C 207.5,117.833 207.5,120.167 207.5,122.5C 206.167,122.5 204.833,122.5 203.5,122.5C 203.719,123.675 203.386,124.675 202.5,125.5C 197.643,122.975 192.976,123.308 188.5,126.5C 187.508,126.328 186.842,126.662 186.5,127.5C 185.504,127.414 184.671,127.748 184,128.5C 182.633,131.603 181.466,134.77 180.5,138C 180.544,140.801 181.544,142.968 183.5,144.5C 182.375,145.652 182.375,146.652 183.5,147.5C 184.35,151.553 185.516,155.553 187,159.5C 187.417,160.756 188.25,161.423 189.5,161.5C 187.871,163.196 188.204,164.196 190.5,164.5C 189.929,165.973 189.929,167.64 190.5,169.5C 192.099,169.232 193.432,169.566 194.5,170.5C 191.075,170.367 190.742,171.033 193.5,172.5C 192.904,173.935 192.904,175.602 193.5,177.5C 194.5,177.5 195.5,177.5 196.5,177.5C 196.082,178.222 195.416,178.722 194.5,179C 194.728,179.399 195.062,179.565 195.5,179.5C 195.928,182.785 196.928,185.785 198.5,188.5C 198.285,190.179 198.952,191.179 200.5,191.5C 199.494,192.396 199.494,193.062 200.5,193.5C 200.402,195.553 201.069,197.22 202.5,198.5C 202.328,199.492 202.662,200.158 203.5,200.5C 203.259,202.898 203.926,204.898 205.5,206.5C 205.328,207.492 205.662,208.158 206.5,208.5C 206.076,212.002 207.41,214.335 210.5,215.5C 209.89,216.391 209.557,217.391 209.5,218.5C 210.227,220.954 211.227,223.287 212.5,225.5C 212.062,225.435 211.728,225.601 211.5,226C 212.858,226.934 214.192,227.768 215.5,228.5C 214.624,228.369 213.957,228.702 213.5,229.5C 218.098,241.461 222.598,253.461 227,265.5C 227.168,256.482 227.668,247.482 228.5,238.5C 229.333,250.152 229.833,261.819 230,273.5C 235.944,289.699 242.111,305.699 248.5,321.5C 246.699,326.229 244.699,330.896 242.5,335.5C 218.116,272.729 194.283,209.729 171,146.5C 170.061,143.236 169.561,139.903 169.5,136.5C 169.059,132.82 170.059,129.653 172.5,127C 179.749,123.632 187.416,122.132 195.5,122.5C 195.5,119.833 195.5,117.167 195.5,114.5C 195.5,113.833 195.5,113.167 195.5,112.5 Z"/></g>
<g><path style="opacity:1" fill="#a4a4a5" d="M 351.5,115.5 C 355.5,115.5 359.5,115.5 363.5,115.5C 363.663,117.857 363.497,120.19 363,122.5C 352.957,125.869 345.291,132.202 340,141.5C 333.894,152.983 329.061,164.983 325.5,177.5C 332.175,177.334 338.842,177.5 345.5,178C 345.957,178.414 346.291,178.914 346.5,179.5C 338.855,180.331 331.188,180.831 323.5,181C 320.798,186.608 318.798,192.441 317.5,198.5C 316.662,198.842 316.328,199.508 316.5,200.5C 314.935,202.509 313.935,204.843 313.5,207.5C 305.929,225.535 298.929,243.869 292.5,262.5C 288.038,272.033 284.038,281.866 280.5,292C 280.57,292.765 280.903,293.265 281.5,293.5C 278.333,295.952 276.667,299.285 276.5,303.5C 265.4,330.615 254.567,357.948 244,385.5C 239.397,387.719 236.563,386.385 235.5,381.5C 235.043,380.702 234.376,380.369 233.5,380.5C 239.595,364.657 245.928,348.99 252.5,333.5C 253.09,334.766 253.59,336.099 254,337.5C 258.382,327.693 262.382,317.693 266,307.5C 266.275,304.942 265.775,302.608 264.5,300.5C 265.514,298.426 266.514,296.426 267.5,294.5C 268.542,295.791 269.708,295.791 271,294.5C 277.087,279.67 282.587,264.67 287.5,249.5C 295.468,231.603 302.468,213.27 308.5,194.5C 313.976,183.758 318.31,172.424 321.5,160.5C 321.043,159.702 320.376,159.369 319.5,159.5C 321.507,153.655 324.007,147.988 327,142.5C 332.076,131.913 340.243,125.246 351.5,122.5C 351.5,120.167 351.5,117.833 351.5,115.5 Z"/></g>
<g><path style="opacity:1" fill="#303030" d="M 205.5,72.5 C 208.844,88.2244 212.511,103.891 216.5,119.5C 216.167,120.167 215.833,120.833 215.5,121.5C 211.324,106.287 207.657,90.9535 204.5,75.5C 204.263,74.209 204.596,73.209 205.5,72.5 Z"/></g>
<g><path style="opacity:1" fill="#f1f2f4" d="M 281.5,122.5 C 286.322,122.352 290.988,123.019 295.5,124.5C 292.48,127.516 289.146,130.183 285.5,132.5C 283.597,129.47 282.263,126.137 281.5,122.5 Z"/></g>
<g><path style="opacity:1" fill="#383838" d="M 188.5,126.5 C 189.141,127.482 189.807,128.482 190.5,129.5C 188.655,130.395 187.322,129.728 186.5,127.5C 186.842,126.662 187.508,126.328 188.5,126.5 Z"/></g>
<g><path style="opacity:1" fill="#252526" d="M 295.5,124.5 C 296.492,124.328 297.158,124.662 297.5,125.5C 293.518,128.152 289.851,131.152 286.5,134.5C 285.662,134.158 285.328,133.492 285.5,132.5C 289.146,130.183 292.48,127.516 295.5,124.5 Z"/></g>
<g><path style="opacity:1" fill="#eeeeee" d="M 243.5,132.5 C 245.188,134.477 245.521,136.477 244.5,138.5C 241.873,137.908 239.206,137.575 236.5,137.5C 215.018,133.959 199.351,141.959 189.5,161.5C 188.25,161.423 187.417,160.756 187,159.5C 185.516,155.553 184.35,151.553 183.5,147.5C 201.035,133.116 221.035,128.116 243.5,132.5 Z"/></g>
<g><path style="opacity:1" fill="#373737" d="M 239.5,129.5 C 241.219,130.022 242.552,131.022 243.5,132.5C 221.035,128.116 201.035,133.116 183.5,147.5C 182.375,146.652 182.375,145.652 183.5,144.5C 200.331,132.626 218.998,127.626 239.5,129.5 Z"/></g>
<g><path style="opacity:1" fill="#2d2d2e" d="M 310.5,136.5 C 311.434,137.568 311.768,138.901 311.5,140.5C 306.099,142.699 300.765,145.199 295.5,148C 294.365,148.749 293.365,148.583 292.5,147.5C 298.264,144.913 303.931,142.08 309.5,139C 310.252,138.329 310.586,137.496 310.5,136.5 Z"/></g>
<g><path style="opacity:1" fill="#f8f8f9" d="M 297.5,125.5 C 303.982,126.65 308.315,130.317 310.5,136.5C 310.586,137.496 310.252,138.329 309.5,139C 303.931,142.08 298.264,144.913 292.5,147.5C 293.365,148.583 294.365,148.749 295.5,148C 300.765,145.199 306.099,142.699 311.5,140.5C 311.714,147.268 311.047,153.935 309.5,160.5C 308.325,160.281 307.325,160.614 306.5,161.5C 306.957,162.298 307.624,162.631 308.5,162.5C 307.918,166.532 306.584,170.199 304.5,173.5C 301.431,169.705 298.597,165.705 296,161.5C 292.062,152.733 288.895,143.733 286.5,134.5C 289.851,131.152 293.518,128.152 297.5,125.5 Z"/></g>
<g><path style="opacity:1" fill="#ebebeb" d="M 246.5,143.5 C 248.363,144.967 249.696,146.967 250.5,149.5C 250.137,150.183 249.804,150.85 249.5,151.5C 245.166,156.671 241,162.005 237,167.5C 236.333,166.5 236.333,165.5 237,164.5C 240.162,157.509 243.328,150.509 246.5,143.5 Z"/></g>
<g><path style="opacity:1" fill="#f6f6f6" d="M 245.5,175.5 C 249.205,177.264 253.205,178.431 257.5,179C 238.329,179.829 219.329,179.662 200.5,178.5C 209.011,177.994 216.177,174.661 222,168.5C 224.946,162.049 227.28,155.382 229,148.5C 230.282,157.16 233.448,164.994 238.5,172C 240.577,173.705 242.91,174.872 245.5,175.5 Z"/></g>
<g><path style="opacity:1" fill="#e4e4e4" d="M 250.5,153.5 C 252.934,155.012 253.601,157.012 252.5,159.5C 248.375,162.453 244.375,165.619 240.5,169C 239.668,169.688 239.002,169.521 238.5,168.5C 242.554,163.457 246.554,158.457 250.5,153.5 Z"/></g>
<g><path style="opacity:1" fill="#48494a" d="M 136.5,156.5 C 137.11,157.391 137.443,158.391 137.5,159.5C 129.239,158.284 128.906,157.284 136.5,156.5 Z"/></g>
<g><path style="opacity:1" fill="#f0f3f8" d="M 319.5,159.5 C 320.376,159.369 321.043,159.702 321.5,160.5C 318.31,172.424 313.976,183.758 308.5,194.5C 308.443,193.391 308.11,192.391 307.5,191.5C 310.94,180.62 314.94,169.954 319.5,159.5 Z"/></g>
<g><path style="opacity:1" fill="#e0e0e0" d="M 253.5,160.5 C 254.931,161.78 255.598,163.447 255.5,165.5C 252.363,166.713 249.363,168.213 246.5,170C 244.553,170.991 242.553,171.325 240.5,171C 244.708,167.287 249.041,163.787 253.5,160.5 Z"/></g>
<g><path style="opacity:1" fill="#454649" d="M 309.5,160.5 C 309.167,161.167 308.833,161.833 308.5,162.5C 307.624,162.631 306.957,162.298 306.5,161.5C 307.325,160.614 308.325,160.281 309.5,160.5 Z"/></g>
<g><path style="opacity:1" fill="#f0f0f0" d="M 194.5,170.5 C 193.432,169.566 192.099,169.232 190.5,169.5C 189.929,167.64 189.929,165.973 190.5,164.5C 190.369,163.624 190.702,162.957 191.5,162.5C 198.667,165.719 205.667,169.219 212.5,173C 206.333,173.459 200.333,172.626 194.5,170.5 Z"/></g>
<g><path style="opacity:1" fill="#e2e2e2" d="M 255.5,167.5 C 257.121,167.787 258.121,168.787 258.5,170.5C 256.125,171.66 253.792,172.66 251.5,173.5C 249.94,173.519 248.44,173.852 247,174.5C 245.941,174.37 245.108,173.87 244.5,173C 247.91,170.628 251.577,168.795 255.5,167.5 Z"/></g>
<g><path style="opacity:1" fill="#eaeaea" d="M 193.5,172.5 C 197.325,172.885 200.991,173.885 204.5,175.5C 201.87,176.381 199.203,177.048 196.5,177.5C 195.5,177.5 194.5,177.5 193.5,177.5C 192.904,175.602 192.904,173.935 193.5,172.5 Z"/></g>
<g><path style="opacity:1" fill="#2a2a2a" d="M 236.5,137.5 C 239.206,137.575 241.873,137.908 244.5,138.5C 247.15,139.457 247.817,141.124 246.5,143.5C 243.328,150.509 240.162,157.509 237,164.5C 236.333,165.5 236.333,166.5 237,167.5C 241,162.005 245.166,156.671 249.5,151.5C 250.338,151.842 250.672,152.508 250.5,153.5C 246.554,158.457 242.554,163.457 238.5,168.5C 239.002,169.521 239.668,169.688 240.5,169C 244.375,165.619 248.375,162.453 252.5,159.5C 253.167,159.5 253.5,159.833 253.5,160.5C 249.041,163.787 244.708,167.287 240.5,171C 242.553,171.325 244.553,170.991 246.5,170C 249.363,168.213 252.363,166.713 255.5,165.5C 256.506,165.938 256.506,166.604 255.5,167.5C 251.577,168.795 247.91,170.628 244.5,173C 245.108,173.87 245.941,174.37 247,174.5C 248.44,173.852 249.94,173.519 251.5,173.5C 251.938,173.435 252.272,173.601 252.5,174C 251.953,174.925 251.287,175.758 250.5,176.5C 248.929,175.691 247.262,175.357 245.5,175.5C 242.91,174.872 240.577,173.705 238.5,172C 233.448,164.994 230.282,157.16 229,148.5C 227.28,155.382 224.946,162.049 222,168.5C 216.177,174.661 209.011,177.994 200.5,178.5C 198.883,179.038 197.216,179.371 195.5,179.5C 195.062,179.565 194.728,179.399 194.5,179C 195.416,178.722 196.082,178.222 196.5,177.5C 199.203,177.048 201.87,176.381 204.5,175.5C 200.991,173.885 197.325,172.885 193.5,172.5C 190.742,171.033 191.075,170.367 194.5,170.5C 200.333,172.626 206.333,173.459 212.5,173C 205.667,169.219 198.667,165.719 191.5,162.5C 190.702,162.957 190.369,163.624 190.5,164.5C 188.204,164.196 187.871,163.196 189.5,161.5C 199.351,141.959 215.018,133.959 236.5,137.5 Z"/></g>
<g><path style="opacity:1" fill="#e8e8e8" d="M 194.5,154.5 C 202.31,159.252 209.644,164.752 216.5,171C 208.716,168.452 201.049,165.285 193.5,161.5C 193.167,161 192.833,160.5 192.5,160C 193.32,158.2 193.986,156.366 194.5,154.5 Z"/></g>
<g><path style="opacity:1" fill="#e9e9e9" d="M 201.5,147.5 C 207.176,153.013 212.342,159.013 217,165.5C 217.982,166.759 218.315,168.092 218,169.5C 211.333,164.167 204.667,158.833 198,153.5C 197.333,152.833 197.333,152.167 198,151.5C 199.376,150.295 200.542,148.962 201.5,147.5 Z"/></g>
<g><path style="opacity:1" fill="#ececec" d="M 208.5,142.5 C 209.496,142.414 210.329,142.748 211,143.5C 214.227,150.955 217.727,158.288 221.5,165.5C 221.167,165.833 220.833,166.167 220.5,166.5C 214.817,160.146 209.484,153.48 204.5,146.5C 205.549,144.784 206.882,143.451 208.5,142.5 Z"/></g>
<g><path style="opacity:1" fill="#eaeaea" d="M 238.5,139.5 C 240.806,139.993 243.139,140.326 245.5,140.5C 242.532,148.434 239.032,156.101 235,163.5C 235.187,155.39 236.353,147.39 238.5,139.5 Z"/></g>
<g><path style="opacity:1" fill="#8a8a8a" d="M 223.5,138.5 C 224.919,137.549 226.585,137.216 228.5,137.5C 228.81,140.713 228.477,143.713 227.5,146.5C 227.5,143.833 227.5,141.167 227.5,138.5C 226.167,138.5 224.833,138.5 223.5,138.5 Z"/></g>
<g><path style="opacity:1" fill="#eaeaea" d="M 215.5,139.5 C 216.833,139.5 218.167,139.5 219.5,139.5C 220.828,146.477 222.162,153.477 223.5,160.5C 223.167,161.5 222.833,162.5 222.5,163.5C 218.965,156.264 215.299,149.097 211.5,142C 212.858,141.066 214.192,140.232 215.5,139.5 Z"/></g>
<g><path style="opacity:1" fill="#e2e2e2" d="M 236.5,137.5 C 235.868,143.907 234.701,150.24 233,156.5C 230.468,150.408 229.301,144.075 229.5,137.5C 231.833,137.5 234.167,137.5 236.5,137.5 Z"/></g>
<g><path style="opacity:1" fill="#efefef" d="M 223.5,138.5 C 224.833,138.5 226.167,138.5 227.5,138.5C 227.5,141.167 227.5,143.833 227.5,146.5C 226.571,149.675 225.738,153.009 225,156.5C 223.345,150.882 221.845,145.216 220.5,139.5C 221.325,138.614 222.325,138.281 223.5,138.5 Z"/></g>
<g><path style="opacity:1" fill="#f3f3f3" d="M 256.5,173.5 C 257.5,173.5 258.5,173.5 259.5,173.5C 259.5,174.5 259.5,175.5 259.5,176.5C 257.25,176.819 255.25,176.319 253.5,175C 254.737,174.768 255.737,174.268 256.5,173.5 Z"/></g>
<g><path style="opacity:1" fill="#e1e4e9" d="M 304.5,175.5 C 304.443,176.609 304.11,177.609 303.5,178.5C 301.825,176.821 300.992,174.821 301,172.5C 302.039,173.71 303.206,174.71 304.5,175.5 Z"/></g>
<g><path style="opacity:1" fill="#646464" d="M 111.5,178.5 C 121.19,178.168 130.856,178.502 140.5,179.5C 135.667,179.833 130.833,180.167 126,180.5C 120.784,180.494 115.951,179.827 111.5,178.5 Z"/></g>
<g><path style="opacity:1" fill="#ededed" d="M 198.5,188.5 C 201.059,188.198 203.393,188.532 205.5,189.5C 203.833,190.167 202.167,190.833 200.5,191.5C 198.952,191.179 198.285,190.179 198.5,188.5 Z"/></g>
<g><path style="opacity:1" fill="#e7e7e7" d="M 214.5,189.5 C 210.5,192.5 206.5,195.5 202.5,198.5C 201.069,197.22 200.402,195.553 200.5,193.5C 203.503,192.161 206.503,190.828 209.5,189.5C 211.284,188.28 212.95,188.28 214.5,189.5 Z"/></g>
<g><path style="opacity:1" fill="#ededed" d="M 251.5,189.5 C 255.97,188.514 260.637,188.181 265.5,188.5C 266.417,191.005 266.417,193.338 265.5,195.5C 260.746,193.694 256.08,191.694 251.5,189.5 Z"/></g>
<g><path style="opacity:1" fill="#343434" d="M 209.5,189.5 C 206.503,190.828 203.503,192.161 200.5,193.5C 199.494,193.062 199.494,192.396 200.5,191.5C 202.167,190.833 203.833,190.167 205.5,189.5C 206.961,188.314 208.295,188.314 209.5,189.5 Z"/></g>
<g><path style="opacity:1" fill="#282828" d="M 217.5,189.5 C 212.809,193.197 208.142,196.864 203.5,200.5C 202.662,200.158 202.328,199.492 202.5,198.5C 206.5,195.5 210.5,192.5 214.5,189.5C 215.652,188.375 216.652,188.375 217.5,189.5 Z"/></g>
<g><path style="opacity:1" fill="#747474" d="M 149.5,190.5 C 151.677,195.013 153.677,199.68 155.5,204.5C 152.887,207.645 151.221,211.311 150.5,215.5C 149.494,216.396 149.494,217.062 150.5,217.5C 144.76,228.194 140.26,239.528 137,251.5C 128.562,281.584 140.062,296.251 171.5,295.5C 171.5,298.167 171.5,300.833 171.5,303.5C 144.161,302.361 116.827,302.361 89.5,303.5C 89.3359,300.813 89.5026,298.146 90,295.5C 101.324,291.848 109.991,284.848 116,274.5C 121.217,264.067 125.883,253.401 130,242.5C 135.775,227.981 140.941,213.648 145.5,199.5C 145.918,198.778 146.584,198.278 147.5,198C 147.272,197.601 146.938,197.435 146.5,197.5C 148.312,195.539 149.312,193.206 149.5,190.5 Z"/></g>
<g><path style="opacity:1" fill="#e7e7e7" d="M 217.5,189.5 C 218.167,189.5 218.5,189.833 218.5,190.5C 214.156,195.873 209.823,201.206 205.5,206.5C 203.926,204.898 203.259,202.898 203.5,200.5C 208.142,196.864 212.809,193.197 217.5,189.5 Z"/></g>
<g><path style="opacity:1" fill="#707277" d="M 307.5,191.5 C 308.11,192.391 308.443,193.391 308.5,194.5C 302.468,213.27 295.468,231.603 287.5,249.5C 287.573,247.973 286.906,246.973 285.5,246.5C 292.595,227.991 299.928,209.658 307.5,191.5 Z"/></g>
<g><path style="opacity:1" fill="#e8e8e8" d="M 210.5,215.5 C 207.41,214.335 206.076,212.002 206.5,208.5C 210.834,203.329 215,197.995 219,192.5C 219.893,191.289 220.726,191.289 221.5,192.5C 217.547,200.071 213.88,207.738 210.5,215.5 Z"/></g>
<g><path style="opacity:1" fill="#f1f1f1" d="M 267.5,198.5 C 270.049,202.097 272.049,206.097 273.5,210.5C 273.137,211.183 272.804,211.85 272.5,212.5C 259.029,221.944 244.029,226.944 227.5,227.5C 222.353,227.662 217.353,226.996 212.5,225.5C 211.227,223.287 210.227,220.954 209.5,218.5C 234.388,227.455 253.721,220.789 267.5,198.5 Z"/></g>
<g><path style="opacity:1" fill="#333333" d="M 146.5,197.5 C 146.938,197.435 147.272,197.601 147.5,198C 146.584,198.278 145.918,198.778 145.5,199.5C 140.753,200.081 136.086,201.081 131.5,202.5C 131.167,202.167 130.833,201.833 130.5,201.5C 135.596,199.28 140.929,197.947 146.5,197.5 Z"/></g>
<g><path style="opacity:1" fill="#424242" d="M 317.5,198.5 C 320.88,199.245 324.214,200.245 327.5,201.5C 323.882,201.962 320.215,201.628 316.5,200.5C 316.328,199.508 316.662,198.842 317.5,198.5 Z"/></g>
<g><path style="opacity:1" fill="#e7eaee" d="M 155.5,204.5 C 156.499,207.162 157.499,209.828 158.5,212.5C 155.645,213.117 152.978,214.117 150.5,215.5C 151.221,211.311 152.887,207.645 155.5,204.5 Z"/></g>
<g><path style="opacity:1" fill="#272727" d="M 221.5,189.5 C 225.513,195.513 228.013,202.179 229,209.5C 229.942,202.388 232.108,195.721 235.5,189.5C 236.652,188.375 237.652,188.375 238.5,189.5C 243.794,196.795 249.461,203.795 255.5,210.5C 257.316,209.185 258.983,207.685 260.5,206C 253.644,200.636 246.977,195.136 240.5,189.5C 240.842,188.662 241.508,188.328 242.5,188.5C 248.489,193.65 254.656,198.65 261,203.5C 263.354,202.644 264.854,200.977 265.5,198.5C 259.505,195.501 253.505,192.501 247.5,189.5C 248.705,188.314 250.039,188.314 251.5,189.5C 256.08,191.694 260.746,193.694 265.5,195.5C 266.551,196.222 267.218,197.222 267.5,198.5C 253.721,220.789 234.388,227.455 209.5,218.5C 209.557,217.391 209.89,216.391 210.5,215.5C 213.88,207.738 217.547,200.071 221.5,192.5C 220.726,191.289 219.893,191.289 219,192.5C 215,197.995 210.834,203.329 206.5,208.5C 205.662,208.158 205.328,207.492 205.5,206.5C 209.823,201.206 214.156,195.873 218.5,190.5C 219.222,190.082 219.722,189.416 220,188.5C 220.383,189.056 220.883,189.389 221.5,189.5 Z"/></g>
<g><path style="opacity:1" fill="#e3e3e3" d="M 232.5,201.5 C 234.835,207.502 236.168,213.836 236.5,220.5C 234.167,220.5 231.833,220.5 229.5,220.5C 229.585,214.007 230.585,207.674 232.5,201.5 Z"/></g>
<g><path style="opacity:1" fill="#e2e2e2" d="M 224.5,201.5 C 227.036,207.477 228.37,213.811 228.5,220.5C 225.833,220.5 223.167,220.5 220.5,220.5C 221.683,214.105 223.017,207.771 224.5,201.5 Z"/></g>
<g><path style="opacity:1" fill="#ececec" d="M 236.5,191.5 C 242.454,197.388 247.954,203.721 253,210.5C 253.749,211.635 253.583,212.635 252.5,213.5C 250.714,215.021 248.881,215.354 247,214.5C 242.94,207.05 239.44,199.383 236.5,191.5 Z"/></g>
<g><path style="opacity:1" fill="#ebebeb" d="M 234.5,194.5 C 238.512,201.355 242.179,208.522 245.5,216C 243.713,218.134 241.38,218.967 238.5,218.5C 236.522,210.609 235.188,202.609 234.5,194.5 Z"/></g>
<g><path style="opacity:1" fill="#ebebeb" d="M 221.5,195.5 C 222.649,195.791 223.316,196.624 223.5,198C 221.921,204.482 220.421,210.982 219,217.5C 216.289,218.926 213.789,218.592 211.5,216.5C 215.118,209.6 218.451,202.6 221.5,195.5 Z"/></g>
<g><path style="opacity:1" fill="#ececec" d="M 238.5,189.5 C 239.167,189.5 239.833,189.5 240.5,189.5C 246.977,195.136 253.644,200.636 260.5,206C 258.983,207.685 257.316,209.185 255.5,210.5C 249.461,203.795 243.794,196.795 238.5,189.5 Z"/></g>
<g><path style="opacity:1" fill="#eeeeee" d="M 242.5,188.5 C 244.292,188.366 245.958,188.699 247.5,189.5C 253.505,192.501 259.505,195.501 265.5,198.5C 264.854,200.977 263.354,202.644 261,203.5C 254.656,198.65 248.489,193.65 242.5,188.5 Z"/></g>
<g><path style="opacity:1" fill="#f1f1f1" d="M 221.5,189.5 C 226.167,188.167 230.833,188.167 235.5,189.5C 232.108,195.721 229.942,202.388 229,209.5C 228.013,202.179 225.513,195.513 221.5,189.5 Z"/></g>
<g><path style="opacity:1" fill="#737373" d="M 313.5,207.5 C 322.404,229.694 331.237,252.027 340,274.5C 341.586,276.67 342.92,279.004 344,281.5C 349.485,290.16 357.318,294.827 367.5,295.5C 367.5,298.167 367.5,300.833 367.5,303.5C 337.101,302.346 306.768,302.346 276.5,303.5C 276.667,299.285 278.333,295.952 281.5,293.5C 293.421,291.995 298.255,285.329 296,273.5C 295.124,269.708 293.958,266.041 292.5,262.5C 298.929,243.869 305.929,225.535 313.5,207.5 Z"/></g>
<g><path style="opacity:1" fill="#fafafa" d="M 273.5,213.5 C 276.934,220.124 279.6,227.124 281.5,234.5C 281.029,236.579 280.363,238.579 279.5,240.5C 275.532,236.361 271.699,232.027 268,227.5C 267.833,227.833 267.667,228.167 267.5,228.5C 271.186,233.236 274.853,237.903 278.5,242.5C 276.346,249.46 273.679,256.126 270.5,262.5C 265.668,253.393 261.001,244.06 256.5,234.5C 255.833,233.167 255.167,233.167 254.5,234.5C 259.699,244.777 264.699,255.11 269.5,265.5C 262.5,284.167 255.5,302.833 248.5,321.5C 242.111,305.699 235.944,289.699 230,273.5C 229.833,261.819 229.333,250.152 228.5,238.5C 227.668,247.482 227.168,256.482 227,265.5C 222.598,253.461 218.098,241.461 213.5,229.5C 213.957,228.702 214.624,228.369 215.5,228.5C 236.93,231.31 256.263,226.31 273.5,213.5 Z"/></g>
<g><path style="opacity:1" fill="#2e2e2e" d="M 158.5,212.5 C 158.5,213.167 158.5,213.833 158.5,214.5C 155.833,215.5 153.167,216.5 150.5,217.5C 149.494,217.062 149.494,216.396 150.5,215.5C 152.978,214.117 155.645,213.117 158.5,212.5 Z"/></g>
<g><path style="opacity:1" fill="#323232" d="M 272.5,212.5 C 273.167,212.5 273.5,212.833 273.5,213.5C 256.263,226.31 236.93,231.31 215.5,228.5C 214.192,227.768 212.858,226.934 211.5,226C 211.728,225.601 212.062,225.435 212.5,225.5C 217.353,226.996 222.353,227.662 227.5,227.5C 244.029,226.944 259.029,221.944 272.5,212.5 Z"/></g>
<g><path style="opacity:1" fill="#2a2a2c" d="M 164.5,229.5 C 165.338,229.842 165.672,230.508 165.5,231.5C 156.826,236.488 156.493,235.821 164.5,229.5 Z"/></g>
<g><path style="opacity:1" fill="#272727" d="M 279.5,240.5 C 279.167,241.167 278.833,241.833 278.5,242.5C 274.853,237.903 271.186,233.236 267.5,228.5C 267.667,228.167 267.833,227.833 268,227.5C 271.699,232.027 275.532,236.361 279.5,240.5 Z"/></g>
<g><path style="opacity:1" fill="#2a2a2b" d="M 270.5,262.5 C 270.737,263.791 270.404,264.791 269.5,265.5C 264.699,255.11 259.699,244.777 254.5,234.5C 255.167,233.167 255.833,233.167 256.5,234.5C 261.001,244.06 265.668,253.393 270.5,262.5 Z"/></g>
<g><path style="opacity:1" fill="#2d2d2d" d="M 241.5,237.5 C 242.931,237.881 243.764,238.881 244,240.5C 247.73,256.82 251.064,273.154 254,289.5C 249.395,272.317 245.228,254.983 241.5,237.5 Z"/></g>
<g><path style="opacity:1" fill="#595b5e" d="M 171.5,247.5 C 172.404,248.209 172.737,249.209 172.5,250.5C 171.923,251.773 171.257,251.773 170.5,250.5C 171.127,249.583 171.461,248.583 171.5,247.5 Z"/></g>
<g><path style="opacity:1" fill="#42454c" d="M 285.5,248.5 C 286.914,250.598 286.248,251.598 283.5,251.5C 283.932,250.29 284.599,249.29 285.5,248.5 Z"/></g>
<g><path style="opacity:1" fill="#f0f3f7" d="M 285.5,246.5 C 286.906,246.973 287.573,247.973 287.5,249.5C 282.587,264.67 277.087,279.67 271,294.5C 269.708,295.791 268.542,295.791 267.5,294.5C 272.549,280.068 277.882,265.735 283.5,251.5C 286.248,251.598 286.914,250.598 285.5,248.5C 285.5,247.833 285.5,247.167 285.5,246.5 Z"/></g>
<g><path style="opacity:1" fill="#f9f9f9" d="M 292.5,262.5 C 293.958,266.041 295.124,269.708 296,273.5C 298.255,285.329 293.421,291.995 281.5,293.5C 280.903,293.265 280.57,292.765 280.5,292C 284.038,281.866 288.038,272.033 292.5,262.5 Z"/></g>
<g><path style="opacity:1" fill="#f1f4f8" d="M 264.5,300.5 C 265.775,302.608 266.275,304.942 266,307.5C 262.382,317.693 258.382,327.693 254,337.5C 253.59,336.099 253.09,334.766 252.5,333.5C 256.215,322.402 260.215,311.402 264.5,300.5 Z"/></g>
<g><path style="opacity:1" fill="#6e6e6e" d="M 157.5,394.5 C 155.167,393.167 152.833,393.167 150.5,394.5C 149.325,394.719 148.325,394.386 147.5,393.5C 151.795,392.339 156.129,392.172 160.5,393C 159.473,393.513 158.473,394.013 157.5,394.5 Z"/></g>
<g><path style="opacity:1" fill="#707070" d="M 175.5,394.5 C 174.167,393.167 172.833,393.167 171.5,394.5C 170.244,394.539 169.244,394.039 168.5,393C 171.882,392.176 175.216,392.343 178.5,393.5C 177.675,394.386 176.675,394.719 175.5,394.5 Z"/></g>
<g><path style="opacity:1" fill="#6c6c6c" d="M 199.5,393.5 C 199.5,393.833 199.5,394.167 199.5,394.5C 196.873,393.908 194.206,393.575 191.5,393.5C 188.941,393.198 186.607,393.532 184.5,394.5C 183.325,394.719 182.325,394.386 181.5,393.5C 187.654,392.183 193.654,392.183 199.5,393.5 Z"/></g>
<g><path style="opacity:1" fill="#6c6c6c" d="M 226.5,394.5 C 224.5,393.167 222.5,393.167 220.5,394.5C 219.325,394.719 218.325,394.386 217.5,393.5C 221.5,392.167 225.5,392.167 229.5,393.5C 228.675,394.386 227.675,394.719 226.5,394.5 Z"/></g>
<g><path style="opacity:1" fill="#858585" d="M 252.5,392.5 C 251.833,392.5 251.5,392.833 251.5,393.5C 250.167,393.5 248.833,393.5 247.5,393.5C 247.5,393.167 247.5,392.833 247.5,392.5C 249.167,391.167 250.833,391.167 252.5,392.5 Z"/></g>
<g><path style="opacity:1" fill="#6f6f6f" d="M 313.5,394.5 C 311.167,393.167 308.833,393.167 306.5,394.5C 305.624,394.631 304.957,394.298 304.5,393.5C 308.5,392.167 312.5,392.167 316.5,393.5C 315.675,394.386 314.675,394.719 313.5,394.5 Z"/></g>
<g><path style="opacity:1" fill="#6a6a6a" d="M 332.5,394.5 C 331.167,393.167 329.833,393.167 328.5,394.5C 327.325,394.719 326.325,394.386 325.5,393.5C 328.446,392.345 331.446,392.179 334.5,393C 333.956,393.717 333.289,394.217 332.5,394.5 Z"/></g>
<g><path style="opacity:1" fill="#6f6f6f" d="M 347.5,394.5 C 345.167,393.167 342.833,393.167 340.5,394.5C 339.624,394.631 338.957,394.298 338.5,393.5C 342.5,392.167 346.5,392.167 350.5,393.5C 349.675,394.386 348.675,394.719 347.5,394.5 Z"/></g>
<g><path style="opacity:1" fill="#1a1a1a" d="M 123.5,411.5 C 125.118,404.812 127.618,398.479 131,392.5C 135.196,402.755 139.196,413.088 143,423.5C 143.5,425.333 144.667,426.5 146.5,427C 142.5,427.667 138.5,427.667 134.5,427C 136.573,426.882 137.907,425.882 138.5,424C 137.338,420.853 136.338,417.686 135.5,414.5C 131.167,414.5 126.833,414.5 122.5,414.5C 121.842,417.156 121.175,419.822 120.5,422.5C 120.231,425.399 121.565,426.899 124.5,427C 121.167,427.667 117.833,427.667 114.5,427C 115.416,426.626 116.25,426.126 117,425.5C 118.942,420.623 121.108,415.956 123.5,411.5 Z"/></g>
<g><path style="opacity:1" fill="#1d1d1d" d="M 150.5,394.5 C 152.833,393.167 155.167,393.167 157.5,394.5C 156.343,403.324 156.176,412.324 157,421.5C 159.831,426.737 163.997,427.903 169.5,425C 170.701,424.097 171.535,422.931 172,421.5C 173.542,412.896 173.876,404.23 173,395.5C 172.617,394.944 172.117,394.611 171.5,394.5C 172.833,393.167 174.167,393.167 175.5,394.5C 174.918,403.731 174.085,413.064 173,422.5C 168.313,428.935 162.479,430.102 155.5,426C 154.299,425.097 153.465,423.931 153,422.5C 151.915,413.064 151.082,403.731 150.5,394.5 Z"/></g>
<g><path style="opacity:1" fill="#171717" d="M 184.5,394.5 C 186.607,393.532 188.941,393.198 191.5,393.5C 190.358,404.09 190.192,414.757 191,425.5C 193.405,426.274 195.905,426.774 198.5,427C 192.833,427.667 187.167,427.667 181.5,427C 182.766,426.691 183.933,426.191 185,425.5C 185.825,414.992 185.659,404.658 184.5,394.5 Z"/></g>
<g><path style="opacity:1" fill="#040404" d="M 220.5,394.5 C 222.5,393.167 224.5,393.167 226.5,394.5C 225.359,404.757 225.192,415.09 226,425.5C 227.067,426.191 228.234,426.691 229.5,427C 225.5,427.667 221.5,427.667 217.5,427C 218.5,426.5 219.5,426 220.5,425.5C 221.823,415.007 221.823,404.674 220.5,394.5 Z"/></g>
<g><path style="opacity:1" fill="#fafafa" d="M 247.5,393.5 C 248.833,393.5 250.167,393.5 251.5,393.5C 256.12,394.692 258.953,397.692 260,402.5C 260.961,409.336 260.295,416.003 258,422.5C 256.629,424.041 255.129,425.375 253.5,426.5C 251.451,427.641 249.451,427.641 247.5,426.5C 245.284,425.797 243.451,424.464 242,422.5C 239.098,414.967 238.765,407.3 241,399.5C 242.406,396.591 244.572,394.591 247.5,393.5 Z"/></g>
<g><path style="opacity:1" fill="#141414" d="M 251.5,393.5 C 251.5,392.833 251.833,392.5 252.5,392.5C 261.375,394.547 265.709,400.214 265.5,409.5C 265.783,418.521 261.783,424.521 253.5,427.5C 253.5,427.167 253.5,426.833 253.5,426.5C 255.129,425.375 256.629,424.041 258,422.5C 260.295,416.003 260.961,409.336 260,402.5C 258.953,397.692 256.12,394.692 251.5,393.5 Z"/></g>
<g><path style="opacity:1" fill="#040404" d="M 306.5,394.5 C 308.833,393.167 311.167,393.167 313.5,394.5C 312.343,402.99 312.176,411.657 313,420.5C 313.564,422.887 314.73,424.887 316.5,426.5C 315.833,426.5 315.5,426.833 315.5,427.5C 312.151,426.316 309.985,423.983 309,420.5C 308.667,412.167 308.333,403.833 308,395.5C 307.617,394.944 307.117,394.611 306.5,394.5 Z"/></g>
<g><path style="opacity:1" fill="#050505" d="M 340.5,394.5 C 342.833,393.167 345.167,393.167 347.5,394.5C 346.341,404.658 346.175,414.992 347,425.5C 348.067,426.191 349.234,426.691 350.5,427C 346.5,427.667 342.5,427.667 338.5,427C 339.931,426.535 341.097,425.701 342,424.5C 342.667,414.833 342.667,405.167 342,395.5C 341.617,394.944 341.117,394.611 340.5,394.5 Z"/></g>
<g><path style="opacity:1" fill="#1a1a1a" d="M 362.5,407.5 C 362.167,409.5 361.833,411.5 361.5,413.5C 364.833,413.5 368.167,413.5 371.5,413.5C 370.667,408.836 369,404.503 366.5,400.5C 365.818,401.243 365.151,401.909 364.5,402.5C 365.36,399.089 366.526,395.756 368,392.5C 372.868,402.91 377.202,413.576 381,424.5C 381.833,425.333 382.667,426.167 383.5,427C 378.557,427.961 375.89,427.795 375.5,426.5C 375.395,422.681 374.562,419.014 373,415.5C 362.905,411.831 357.905,415.164 358,425.5C 359.067,426.191 360.234,426.691 361.5,427C 358.5,427.667 355.5,427.667 352.5,427C 353.333,426.167 354.167,425.333 355,424.5C 357.232,418.607 359.732,412.941 362.5,407.5 Z"/></g>
<g><path style="opacity:1" fill="#131313" d="M 199.5,394.5 C 199.5,394.167 199.5,393.833 199.5,393.5C 208.199,395.206 212.533,400.539 212.5,409.5C 212.598,417.145 209.265,422.645 202.5,426C 201.5,426.667 200.5,426.667 199.5,426C 205.944,422.724 208.61,417.39 207.5,410C 208.687,402.666 206.02,397.499 199.5,394.5 Z"/></g>
<g><path style="opacity:1" fill="#151515" d="M 291.5,393.5 C 282.354,391.651 277.187,395.317 276,404.5C 275.107,410.672 275.773,416.672 278,422.5C 279.451,424.464 281.284,425.797 283.5,426.5C 283.5,427.167 283.167,427.5 282.5,427.5C 278.209,426.764 275.042,424.431 273,420.5C 270.446,412.449 271.112,404.783 275,397.5C 279.766,392.686 285.266,391.352 291.5,393.5 Z"/></g>
<g><path style="opacity:1" fill="#181818" d="M 291.5,393.5 C 293.258,393.877 294.925,394.544 296.5,395.5C 297.192,394.975 297.692,394.308 298,393.5C 298.667,396.833 298.667,400.167 298,403.5C 297.051,399.243 294.885,395.909 291.5,393.5 Z"/></g>
<g><path style="opacity:1" fill="#131313" d="M 247.5,392.5 C 247.5,392.833 247.5,393.167 247.5,393.5C 244.572,394.591 242.406,396.591 241,399.5C 238.765,407.3 239.098,414.967 242,422.5C 243.451,424.464 245.284,425.797 247.5,426.5C 247.158,427.338 246.492,427.672 245.5,427.5C 237.534,424.501 233.867,418.668 234.5,410C 234.144,404.879 235.644,400.379 239,396.5C 241.397,394.218 244.231,392.884 247.5,392.5 Z"/></g>
<g><path style="opacity:1" fill="#343434" d="M 332.5,394.5 C 331.883,394.611 331.383,394.944 331,395.5C 330.947,404.934 330.28,414.267 329,423.5C 325.387,427.983 320.887,429.317 315.5,427.5C 315.5,426.833 315.833,426.5 316.5,426.5C 321.126,427.3 324.96,425.966 328,422.5C 329.779,413.165 329.945,403.832 328.5,394.5C 329.833,393.167 331.167,393.167 332.5,394.5 Z"/></g>
<g><path style="opacity:1" fill="#f1f1f1" d="M 123.5,411.5 C 125.558,407.71 127.391,403.71 129,399.5C 130.931,403.793 132.764,408.126 134.5,412.5C 132.667,412.833 130.833,413.167 129,413.5C 126.705,413.453 124.871,412.787 123.5,411.5 Z"/></g>
<g><path style="opacity:1" fill="#f1f1f1" d="M 362.5,407.5 C 363.931,406.22 364.598,404.553 364.5,402.5C 365.151,401.909 365.818,401.243 366.5,400.5C 369,404.503 370.667,408.836 371.5,413.5C 368.167,413.5 364.833,413.5 361.5,413.5C 361.833,411.5 362.167,409.5 362.5,407.5 Z"/></g>
<g><path style="opacity:1" fill="#535353" d="M 364.5,402.5 C 364.598,404.553 363.931,406.22 362.5,407.5C 362.402,405.447 363.069,403.78 364.5,402.5 Z"/></g>
<g><path style="opacity:1" fill="#111111" d="M 295.5,424.5 C 294.833,421.5 294.167,418.5 293.5,415.5C 292.653,414.034 291.32,413.2 289.5,413C 293.5,412.333 297.5,412.333 301.5,413C 300.584,413.374 299.75,413.874 299,414.5C 298.667,418.833 298.333,423.167 298,427.5C 297.623,426.058 296.79,425.058 295.5,424.5 Z"/></g>
<g><path style="opacity:1" fill="#707070" d="M 293.5,415.5 C 294.167,418.5 294.833,421.5 295.5,424.5C 291.769,428.337 287.435,429.337 282.5,427.5C 283.167,427.5 283.5,427.167 283.5,426.5C 286.579,426.74 289.579,426.407 292.5,425.5C 293.487,422.232 293.82,418.898 293.5,415.5 Z"/></g>
<g><path style="opacity:1" fill="#707070" d="M 247.5,426.5 C 249.451,427.641 251.451,427.641 253.5,426.5C 253.5,426.833 253.5,427.167 253.5,427.5C 250.728,428.767 248.061,428.767 245.5,427.5C 246.492,427.672 247.158,427.338 247.5,426.5 Z"/></g>
<g><path style="opacity:1" fill="#949494" d="M 183.5,446.5 C 182.167,445.167 180.833,445.167 179.5,446.5C 178.957,446.44 178.624,446.107 178.5,445.5C 180.765,444.353 183.098,444.186 185.5,445C 184.956,445.717 184.289,446.217 183.5,446.5 Z"/></g>
<g><path style="opacity:1" fill="#959595" d="M 231.5,446.5 C 230.167,445.167 228.833,445.167 227.5,446.5C 226.711,446.217 226.044,445.717 225.5,445C 228.167,444.333 230.833,444.333 233.5,445C 232.956,445.717 232.289,446.217 231.5,446.5 Z"/></g>
<g><path style="opacity:1" fill="#151515" d="M 179.5,446.5 C 180.833,445.167 182.167,445.167 183.5,446.5C 185.207,452.253 187.207,457.919 189.5,463.5C 189,464.5 188.5,465.5 188,466.5C 185.434,459.61 182.601,452.943 179.5,446.5 Z"/></g>
<g><path style="opacity:1" fill="#9b9b9b" d="M 204.5,446.5 C 203.5,445.167 202.5,445.167 201.5,446.5C 199.801,446.34 198.134,446.506 196.5,447C 195.671,448.816 194.837,450.649 194,452.5C 193.504,450.965 193.67,449.465 194.5,448C 194.241,446.739 193.574,445.739 192.5,445C 197.167,444.333 201.833,444.333 206.5,445C 205.956,445.717 205.289,446.217 204.5,446.5 Z"/></g>
<g><path style="opacity:1" fill="#131313" d="M 204.5,446.5 C 203.899,453.289 204.566,459.789 206.5,466C 204.167,466.667 201.833,466.667 199.5,466C 201.434,459.789 202.101,453.289 201.5,446.5C 202.5,445.167 203.5,445.167 204.5,446.5 Z"/></g>
<g><path style="opacity:1" fill="#212121" d="M 227.5,446.5 C 228.833,445.167 230.167,445.167 231.5,446.5C 230.899,453.289 231.566,459.789 233.5,466C 228.623,466.894 226.956,466.728 228.5,465.5C 228.823,458.978 228.49,452.645 227.5,446.5 Z"/></g>
<g><path style="opacity:1" fill="#151515" d="M 260.5,446.5 C 261.708,445.218 263.042,445.218 264.5,446.5C 267.526,451.184 270.526,455.851 273.5,460.5C 274.72,462.284 274.72,463.95 273.5,465.5C 269.859,459.205 265.859,453.205 261.5,447.5C 261.5,446.833 261.167,446.5 260.5,446.5 Z"/></g>
<g><path style="opacity:1" fill="#171717" d="M 219.5,447.5 C 219.56,446.957 219.893,446.624 220.5,446.5C 221.583,447.365 221.749,448.365 221,449.5C 220.722,448.584 220.222,447.918 219.5,447.5 Z"/></g>
<g><path style="opacity:1" fill="#181818" d="M 211.5,445.5 C 212.239,445.369 212.906,445.536 213.5,446C 212.233,447.796 212.233,449.629 213.5,451.5C 216.649,453.486 219.483,455.819 222,458.5C 223.168,461.893 222.334,464.559 219.5,466.5C 218.495,465.89 218.662,465.224 220,464.5C 220.667,463.167 220.667,461.833 220,460.5C 216.651,458.147 213.651,455.48 211,452.5C 210.297,450.071 210.463,447.738 211.5,445.5 Z"/></g>
<g><path style="opacity:1" fill="#202020" d="M 242.5,444.5 C 254.564,444.928 258.397,450.928 254,462.5C 252.578,464.638 250.745,465.805 248.5,466C 252.122,461.489 253.289,456.322 252,450.5C 248,443.833 244,443.833 240,450.5C 239.063,455.403 239.73,460.07 242,464.5C 245.36,466.051 245.193,466.551 241.5,466C 236.997,462.155 235.497,457.322 237,451.5C 237.967,448.379 239.8,446.046 242.5,444.5 Z"/></g>
<g><path style="opacity:1" fill="#6b6b6b" d="M 260.5,446.5 C 261.167,446.5 261.5,446.833 261.5,447.5C 261.5,453.5 261.5,459.5 261.5,465.5C 264.263,466.455 263.263,466.622 258.5,466C 260.434,459.789 261.101,453.289 260.5,446.5 Z"/></g>
<g><path style="opacity:1" fill="#636363" d="M 273.5,465.5 C 274.72,463.95 274.72,462.284 273.5,460.5C 274.812,455.985 274.812,451.318 273.5,446.5C 272.692,446.192 272.025,445.692 271.5,445C 273.5,444.333 275.5,444.333 277.5,445C 277,445.5 276.5,446 276,446.5C 275.831,453.191 275.331,459.858 274.5,466.5C 273.893,466.376 273.56,466.043 273.5,465.5 Z"/></g>
<g><path style="opacity:1" fill="#838383" d="M 211.5,462.5 C 210.596,463.209 210.263,464.209 210.5,465.5C 209.238,464.268 209.238,462.268 210.5,459.5C 211.386,460.325 211.719,461.325 211.5,462.5 Z"/></g>
<g><path style="opacity:1" fill="#080808" d="M 211.5,462.5 C 211.414,463.496 211.748,464.329 212.5,465C 211.906,465.464 211.239,465.631 210.5,465.5C 210.263,464.209 210.596,463.209 211.5,462.5 Z"/></g>
</svg>
