<?xml version="1.0" encoding="UTF-8"?>
<!DOCTYPE svg PUBLIC "-//W3C//DTD SVG 1.1//EN" "http://www.w3.org/Graphics/SVG/1.1/DTD/svg11.dtd">
<svg xmlns="http://www.w3.org/2000/svg" version="1.1" width="500px" height="500px" style="shape-rendering:geometricPrecision; text-rendering:geometricPrecision; image-rendering:optimizeQuality; fill-rule:evenodd; clip-rule:evenodd" xmlns:xlink="http://www.w3.org/1999/xlink">
<g><path style="opacity:1" fill="#fefefe" d="M -0.5,-0.5 C 166.167,-0.5 332.833,-0.5 499.5,-0.5C 499.5,166.167 499.5,332.833 499.5,499.5C 332.833,499.5 166.167,499.5 -0.5,499.5C -0.5,332.833 -0.5,166.167 -0.5,-0.5 Z"/></g>
<g><path style="opacity:1" fill="#737373" d="M 301.5,135.5 C 301.5,137.833 301.5,140.167 301.5,142.5C 302.5,142.5 303.5,142.5 304.5,142.5C 305.263,146.137 306.597,149.47 308.5,152.5C 308.5,153.167 308.5,153.833 308.5,154.5C 312.647,165.613 316.98,176.613 321.5,187.5C 322.075,189.411 323.075,191.078 324.5,192.5C 323.957,192.56 323.624,192.893 323.5,193.5C 324.372,195.45 325.039,197.45 325.5,199.5C 319.267,217.879 312.267,235.879 304.5,253.5C 302.346,246.54 299.679,239.874 296.5,233.5C 296.5,232.833 296.167,232.5 295.5,232.5C 295.66,230.801 295.494,229.134 295,227.5C 293.953,224.141 292.453,221.141 290.5,218.5C 290.737,217.209 290.404,216.209 289.5,215.5C 289.683,213.064 289.016,210.897 287.5,209C 282.98,208.186 278.646,208.353 274.5,209.5C 273.039,208.314 271.705,208.314 270.5,209.5C 268.716,208.28 267.05,208.28 265.5,209.5C 264.348,208.375 263.348,208.375 262.5,209.5C 262.167,209.5 261.833,209.5 261.5,209.5C 260.652,208.375 259.652,208.375 258.5,209.5C 253.833,208.167 249.167,208.167 244.5,209.5C 243.348,208.375 242.348,208.375 241.5,209.5C 241.167,209.5 240.833,209.5 240.5,209.5C 239.652,208.375 238.652,208.375 237.5,209.5C 235.95,208.28 234.284,208.28 232.5,209.5C 231.652,208.375 230.652,208.375 229.5,209.5C 227.052,208.527 224.385,208.194 221.5,208.5C 219.98,206.11 218.98,203.443 218.5,200.5C 219.873,200.657 221.207,200.49 222.5,200C 221.288,198.893 221.621,198.393 223.5,198.5C 223.611,199.117 223.944,199.617 224.5,200C 242.5,200.667 260.5,200.667 278.5,200C 279.416,199.722 280.082,199.222 280.5,198.5C 281.812,198.824 282.645,199.491 283,200.5C 284.683,199.824 284.85,198.824 283.5,197.5C 283.34,195.847 282.674,194.514 281.5,193.5C 281.5,192.833 281.5,192.167 281.5,191.5C 281.201,189.545 280.201,188.211 278.5,187.5C 279.506,186.604 279.506,185.938 278.5,185.5C 278.598,183.447 277.931,181.78 276.5,180.5C 276.5,179.833 276.167,179.5 275.5,179.5C 276.106,176.964 275.44,174.63 273.5,172.5C 273.5,171.833 273.167,171.5 272.5,171.5C 272.611,170.883 272.944,170.383 273.5,170C 272.794,167.286 271.461,165.119 269.5,163.5C 269.611,162.883 269.944,162.383 270.5,162C 269.409,160.45 268.076,159.283 266.5,158.5C 267.497,158.53 268.164,158.03 268.5,157C 267.956,155.415 267.289,153.915 266.5,152.5C 266.167,151.833 265.833,151.167 265.5,150.5C 261.738,138.538 257.404,126.872 252.5,115.5C 252.598,113.447 251.931,111.78 250.5,110.5C 246.243,97.3132 241.41,84.3132 236,71.5C 232.792,78.625 230.292,85.9584 228.5,93.5C 227.596,94.209 227.263,95.209 227.5,96.5C 226.21,97.0577 225.377,98.0577 225,99.5C 221.853,107.774 219.02,116.107 216.5,124.5C 215.662,124.842 215.328,125.508 215.5,126.5C 213.733,128.792 212.733,131.458 212.5,134.5C 213.5,134.5 214.5,134.5 215.5,134.5C 211.366,135.485 207.032,135.818 202.5,135.5C 204.374,129.413 206.541,123.413 209,117.5C 209.253,114.8 209.253,112.133 209,109.5C 209.915,110.328 210.581,111.328 211,112.5C 223.464,80.5786 235.631,48.5786 247.5,16.5C 250.711,16.012 253.544,16.6787 256,18.5C 271.679,59.4444 286.846,98.4444 301.5,135.5 Z"/></g>
<g><path style="opacity:1" fill="#fafafa" d="M 250.5,110.5 C 250.168,120.522 250.501,130.522 251.5,140.5C 252.498,132.193 252.831,123.86 252.5,115.5C 257.404,126.872 261.738,138.538 265.5,150.5C 250.238,147.783 235.571,149.616 221.5,156C 215.974,158.926 210.641,162.093 205.5,165.5C 202.611,159.698 203.111,154.031 207,148.5C 207.671,147.748 208.504,147.414 209.5,147.5C 210.254,149.446 211.588,150.279 213.5,150C 212.364,148.855 211.364,147.688 210.5,146.5C 215.35,143.411 220.35,143.078 225.5,145.5C 226.842,143.995 228.508,143.328 230.5,143.5C 230.5,140.833 230.5,138.167 230.5,135.5C 227.5,135.5 224.5,135.5 221.5,135.5C 220.105,131.71 218.438,128.043 216.5,124.5C 219.02,116.107 221.853,107.774 225,99.5C 225.377,98.0577 226.21,97.0577 227.5,96.5C 230.424,111.739 234.091,126.739 238.5,141.5C 238.833,141.167 239.167,140.833 239.5,140.5C 235.624,124.875 231.958,109.208 228.5,93.5C 230.292,85.9584 232.792,78.625 236,71.5C 241.41,84.3132 246.243,97.3132 250.5,110.5 Z"/></g>
<g><path style="opacity:1" fill="#222222" d="M 228.5,93.5 C 231.958,109.208 235.624,124.875 239.5,140.5C 239.167,140.833 238.833,141.167 238.5,141.5C 234.091,126.739 230.424,111.739 227.5,96.5C 227.263,95.209 227.596,94.209 228.5,93.5 Z"/></g>
<g><path style="opacity:1" fill="#313131" d="M 250.5,110.5 C 251.931,111.78 252.598,113.447 252.5,115.5C 252.831,123.86 252.498,132.193 251.5,140.5C 250.501,130.522 250.168,120.522 250.5,110.5 Z"/></g>
<g><path style="opacity:1" fill="#f5f5f5" d="M 215.5,126.5 C 216.773,128.713 217.773,131.046 218.5,133.5C 218.5,133.833 218.5,134.167 218.5,134.5C 217.5,134.5 216.5,134.5 215.5,134.5C 214.5,134.5 213.5,134.5 212.5,134.5C 212.733,131.458 213.733,128.792 215.5,126.5 Z"/></g>
<g><path style="opacity:1" fill="#19191b" d="M 201.5,135.5 C 200.833,135.5 200.167,135.5 199.5,135.5C 197.171,133.163 195.671,130.496 195,127.5C 197.758,129.751 199.925,132.418 201.5,135.5 Z"/></g>
<g><path style="opacity:1" fill="#1e1e1e" d="M 216.5,124.5 C 218.438,128.043 220.105,131.71 221.5,135.5C 220.222,135.218 219.222,134.551 218.5,133.5C 217.773,131.046 216.773,128.713 215.5,126.5C 215.328,125.508 215.662,124.842 216.5,124.5 Z"/></g>
<g><path style="opacity:1" fill="#1f1f1f" d="M 304.5,134.5 C 303.833,134.5 303.167,134.5 302.5,134.5C 303.823,131.001 306.157,128.835 309.5,128C 307.946,130.287 306.279,132.454 304.5,134.5 Z"/></g>
<g><path style="opacity:1" fill="#044bad" d="M 199.5,135.5 C 200.167,135.5 200.833,135.5 201.5,135.5C 201.833,135.5 202.167,135.5 202.5,135.5C 207.032,135.818 211.366,135.485 215.5,134.5C 216.5,134.5 217.5,134.5 218.5,134.5C 218.5,137.167 218.5,139.833 218.5,142.5C 212.105,142.818 205.772,143.652 199.5,145C 191.532,149.414 189.365,155.914 193,164.5C 216.682,228.384 240.849,292.051 265.5,355.5C 267.699,350.896 269.699,346.229 271.5,341.5C 278.507,322.823 285.507,304.156 292.5,285.5C 293.338,285.158 293.672,284.492 293.5,283.5C 296.402,276.678 299.069,269.678 301.5,262.5C 301.5,262.167 301.5,261.833 301.5,261.5C 303.267,259.208 304.267,256.542 304.5,253.5C 312.267,235.879 319.267,217.879 325.5,199.5C 326.674,198.486 327.34,197.153 327.5,195.5C 327.5,195.167 327.5,194.833 327.5,194.5C 329.798,190.642 330.798,186.642 330.5,182.5C 331.167,181.833 331.833,181.167 332.5,180.5C 334.131,173.978 334.798,167.311 334.5,160.5C 334.672,159.508 334.338,158.842 333.5,158.5C 332.122,150.793 327.455,146.46 319.5,145.5C 319.5,144.833 319.167,144.5 318.5,144.5C 313.938,143.372 309.272,142.705 304.5,142.5C 303.5,142.5 302.5,142.5 301.5,142.5C 301.5,140.167 301.5,137.833 301.5,135.5C 301.5,134.833 301.833,134.5 302.5,134.5C 303.167,134.5 303.833,134.5 304.5,134.5C 328.03,135.42 351.363,135.753 374.5,135.5C 374.5,137.833 374.5,140.167 374.5,142.5C 368.249,144.044 362.749,147.044 358,151.5C 351.017,159.797 345.85,169.131 342.5,179.5C 337.94,189.954 333.94,200.62 330.5,211.5C 322.928,229.658 315.595,247.991 308.5,266.5C 308.5,267.167 308.5,267.833 308.5,268.5C 307.662,268.842 307.328,269.508 307.5,270.5C 301.314,284.888 295.647,299.555 290.5,314.5C 289.514,316.426 288.514,318.426 287.5,320.5C 283.215,331.402 279.215,342.402 275.5,353.5C 268.928,368.99 262.595,384.657 256.5,400.5C 256.167,401.833 255.833,403.167 255.5,404.5C 253.283,405.369 250.95,405.702 248.5,405.5C 231.072,360.325 213.405,315.325 195.5,270.5C 195.737,269.209 195.404,268.209 194.5,267.5C 193.053,261.943 191.053,256.61 188.5,251.5C 188.167,250.833 187.833,250.167 187.5,249.5C 186.262,244.105 184.262,239.105 181.5,234.5C 181.5,233.833 181.5,233.167 181.5,232.5C 180.501,229.838 179.501,227.172 178.5,224.5C 176.463,219.77 174.463,215.103 172.5,210.5C 168.891,200.005 164.891,189.671 160.5,179.5C 160.672,178.508 160.338,177.842 159.5,177.5C 156.731,165.127 150.731,154.627 141.5,146C 137.769,143.901 133.769,142.734 129.5,142.5C 129.336,139.813 129.503,137.146 130,134.5C 153.092,135.494 176.258,135.827 199.5,135.5 Z"/></g>
<g><path style="opacity:1" fill="#a4a5a6" d="M 218.5,133.5 C 219.222,134.551 220.222,135.218 221.5,135.5C 224.5,135.5 227.5,135.5 230.5,135.5C 230.5,138.167 230.5,140.833 230.5,143.5C 228.508,143.328 226.842,143.995 225.5,145.5C 220.35,143.078 215.35,143.411 210.5,146.5C 209.833,146.5 209.5,146.833 209.5,147.5C 208.504,147.414 207.671,147.748 207,148.5C 203.111,154.031 202.611,159.698 205.5,165.5C 205.5,166.167 205.5,166.833 205.5,167.5C 207.264,172.68 209.264,177.68 211.5,182.5C 211.328,183.492 211.662,184.158 212.5,184.5C 212.461,187.089 213.461,189.089 215.5,190.5C 214.494,190.938 214.494,191.604 215.5,192.5C 215.595,194.786 216.262,196.786 217.5,198.5C 217.328,199.492 217.662,200.158 218.5,200.5C 218.98,203.443 219.98,206.11 221.5,208.5C 221.285,210.179 221.952,211.179 223.5,211.5C 222.494,212.396 222.494,213.062 223.5,213.5C 223.595,215.786 224.262,217.786 225.5,219.5C 225.5,220.167 225.833,220.5 226.5,220.5C 226.389,221.117 226.056,221.617 225.5,222C 226.609,223.876 227.609,225.709 228.5,227.5C 228.5,228.167 228.833,228.5 229.5,228.5C 229.389,229.117 229.056,229.617 228.5,230C 229.861,231.584 230.528,233.418 230.5,235.5C 231.5,235.5 232.5,235.5 233.5,235.5C 233.082,236.222 232.416,236.722 231.5,237C 232.056,237.383 232.389,237.883 232.5,238.5C 232.878,240.921 233.545,243.254 234.5,245.5C 234.833,246.167 235.167,246.833 235.5,247.5C 240.129,260.401 245.129,273.067 250.5,285.5C 250.402,287.553 251.069,289.22 252.5,290.5C 258.262,307.795 264.596,324.795 271.5,341.5C 269.699,346.229 267.699,350.896 265.5,355.5C 240.849,292.051 216.682,228.384 193,164.5C 189.365,155.914 191.532,149.414 199.5,145C 205.772,143.652 212.105,142.818 218.5,142.5C 218.5,139.833 218.5,137.167 218.5,134.5C 218.5,134.167 218.5,133.833 218.5,133.5 Z"/></g>
<g><path style="opacity:1" fill="#a3a4a4" d="M 374.5,135.5 C 378.5,135.5 382.5,135.5 386.5,135.5C 386.5,138.167 386.5,140.833 386.5,143.5C 382.895,143.799 379.561,144.965 376.5,147C 367.118,154.57 360.285,164.07 356,175.5C 353.444,182.944 350.611,190.278 347.5,197.5C 354.5,198.167 361.5,198.833 368.5,199.5C 361.189,200.331 353.856,200.831 346.5,201C 344.022,206.788 341.688,212.621 339.5,218.5C 339.5,219.167 339.5,219.833 339.5,220.5C 337.707,222.426 336.707,224.759 336.5,227.5C 328.693,245.461 321.693,263.794 315.5,282.5C 310.405,292.77 306.071,303.436 302.5,314.5C 300.905,317.285 299.905,320.285 299.5,323.5C 288.008,350.456 277.175,377.789 267,405.5C 262.397,407.719 259.563,406.385 258.5,401.5C 258.043,400.702 257.376,400.369 256.5,400.5C 262.595,384.657 268.928,368.99 275.5,353.5C 276.09,354.766 276.59,356.099 277,357.5C 281.382,347.693 285.382,337.693 289,327.5C 289.275,324.942 288.775,322.608 287.5,320.5C 288.514,318.426 289.514,316.426 290.5,314.5C 291.542,315.791 292.708,315.791 294,314.5C 299.609,299.837 305.109,285.17 310.5,270.5C 318.273,252.189 325.273,233.523 331.5,214.5C 336.976,203.758 341.31,192.424 344.5,180.5C 344.043,179.702 343.376,179.369 342.5,179.5C 345.85,169.131 351.017,159.797 358,151.5C 362.749,147.044 368.249,144.044 374.5,142.5C 374.5,140.167 374.5,137.833 374.5,135.5 Z"/></g>
<g><path style="opacity:1" fill="#f0f2f5" d="M 304.5,142.5 C 309.272,142.705 313.938,143.372 318.5,144.5C 315.48,147.516 312.146,150.183 308.5,152.5C 306.597,149.47 305.263,146.137 304.5,142.5 Z"/></g>
<g><path style="opacity:1" fill="#191919" d="M 210.5,146.5 C 211.364,147.688 212.364,148.855 213.5,150C 211.588,150.279 210.254,149.446 209.5,147.5C 209.5,146.833 209.833,146.5 210.5,146.5 Z"/></g>
<g><path style="opacity:1" fill="#1b1b1b" d="M 265.5,150.5 C 265.833,151.167 266.167,151.833 266.5,152.5C 251.69,149.189 237.357,150.689 223.5,157C 217.308,160.259 211.308,163.759 205.5,167.5C 205.5,166.833 205.5,166.167 205.5,165.5C 210.641,162.093 215.974,158.926 221.5,156C 235.571,149.616 250.238,147.783 265.5,150.5 Z"/></g>
<g><path style="opacity:1" fill="#1d1d1d" d="M 318.5,144.5 C 319.167,144.5 319.5,144.833 319.5,145.5C 316.149,148.848 312.482,151.848 308.5,154.5C 308.5,153.833 308.5,153.167 308.5,152.5C 312.146,150.183 315.48,147.516 318.5,144.5 Z"/></g>
<g><path style="opacity:1" fill="#f2f2f2" d="M 266.5,152.5 C 267.289,153.915 267.956,155.415 268.5,157C 268.164,158.03 267.497,158.53 266.5,158.5C 241.71,152.068 223.377,160.068 211.5,182.5C 209.264,177.68 207.264,172.68 205.5,167.5C 211.308,163.759 217.308,160.259 223.5,157C 237.357,150.689 251.69,149.189 266.5,152.5 Z"/></g>
<g><path style="opacity:1" fill="#f8f9f9" d="M 319.5,145.5 C 327.455,146.46 332.122,150.793 333.5,158.5C 327.65,161.744 321.65,164.911 315.5,168C 321.973,166.106 328.306,163.606 334.5,160.5C 334.798,167.311 334.131,173.978 332.5,180.5C 331.127,180.343 329.793,180.51 328.5,181C 329.044,181.717 329.711,182.217 330.5,182.5C 330.798,186.642 329.798,190.642 327.5,194.5C 326.219,191.553 324.219,189.219 321.5,187.5C 316.98,176.613 312.647,165.613 308.5,154.5C 312.482,151.848 316.149,148.848 319.5,145.5 Z"/></g>
<g><path style="opacity:1" fill="#efefef" d="M 269.5,163.5 C 271.461,165.119 272.794,167.286 273.5,170C 272.944,170.383 272.611,170.883 272.5,171.5C 268.166,176.671 264,182.005 260,187.5C 259.333,186.167 259.333,184.833 260,183.5C 263.451,176.933 266.618,170.266 269.5,163.5 Z"/></g>
<g><path style="opacity:1" fill="#1d1e1e" d="M 333.5,158.5 C 334.338,158.842 334.672,159.508 334.5,160.5C 328.306,163.606 321.973,166.106 315.5,168C 321.65,164.911 327.65,161.744 333.5,158.5 Z"/></g>
<g><path style="opacity:1" fill="#ededed" d="M 273.5,172.5 C 275.44,174.63 276.106,176.964 275.5,179.5C 271.375,182.453 267.375,185.619 263.5,189C 262.668,189.688 262.002,189.521 261.5,188.5C 265.909,183.431 269.909,178.098 273.5,172.5 Z"/></g>
<g><path style="opacity:1" fill="#323335" d="M 159.5,177.5 C 160.338,177.842 160.672,178.508 160.5,179.5C 157.608,179.279 154.941,178.446 152.5,177C 154.929,176.297 157.262,176.463 159.5,177.5 Z"/></g>
<g><path style="opacity:1" fill="#1d1d1d" d="M 266.5,158.5 C 268.076,159.283 269.409,160.45 270.5,162C 269.944,162.383 269.611,162.883 269.5,163.5C 266.618,170.266 263.451,176.933 260,183.5C 259.333,184.833 259.333,186.167 260,187.5C 264,182.005 268.166,176.671 272.5,171.5C 273.167,171.5 273.5,171.833 273.5,172.5C 269.909,178.098 265.909,183.431 261.5,188.5C 262.002,189.521 262.668,189.688 263.5,189C 267.375,185.619 271.375,182.453 275.5,179.5C 276.167,179.5 276.5,179.833 276.5,180.5C 272.041,183.787 267.708,187.287 263.5,191C 268.849,190.334 273.849,188.501 278.5,185.5C 279.506,185.938 279.506,186.604 278.5,187.5C 274.577,188.795 270.91,190.628 267.5,193C 268.108,193.87 268.941,194.37 270,194.5C 273.803,193.231 277.637,192.231 281.5,191.5C 281.5,192.167 281.5,192.833 281.5,193.5C 278.834,193.933 276.168,194.433 273.5,195C 276.61,196.524 279.944,197.358 283.5,197.5C 284.85,198.824 284.683,199.824 283,200.5C 282.645,199.491 281.812,198.824 280.5,198.5C 262.951,197.452 253.451,188.119 252,170.5C 249.875,176.534 247.542,182.534 245,188.5C 239.09,194.42 231.924,197.753 223.5,198.5C 221.621,198.393 221.288,198.893 222.5,200C 221.207,200.49 219.873,200.657 218.5,200.5C 217.662,200.158 217.328,199.492 217.5,198.5C 220.885,197.394 224.218,196.227 227.5,195C 223.553,193.846 219.553,193.013 215.5,192.5C 214.494,191.604 214.494,190.938 215.5,190.5C 221.358,191.639 227.192,192.972 233,194.5C 234.225,194.138 235.391,193.638 236.5,193C 229.175,189.396 221.841,185.896 214.5,182.5C 213.478,182.855 212.811,183.522 212.5,184.5C 211.662,184.158 211.328,183.492 211.5,182.5C 223.377,160.068 241.71,152.068 266.5,158.5 Z"/></g>
<g><path style="opacity:1" fill="#ededed" d="M 217.5,174.5 C 225.221,179.374 232.554,184.874 239.5,191C 230.662,188.754 222.329,185.087 214.5,180C 215.758,178.259 216.758,176.426 217.5,174.5 Z"/></g>
<g><path style="opacity:1" fill="#f1f1f1" d="M 280.5,198.5 C 280.082,199.222 279.416,199.722 278.5,200C 260.5,200.667 242.5,200.667 224.5,200C 223.944,199.617 223.611,199.117 223.5,198.5C 231.924,197.753 239.09,194.42 245,188.5C 247.542,182.534 249.875,176.534 252,170.5C 253.451,188.119 262.951,197.452 280.5,198.5 Z"/></g>
<g><path style="opacity:1" fill="#f3f3f3" d="M 224.5,167.5 C 230.636,174.476 236.636,181.643 242.5,189C 241.092,189.315 239.759,188.982 238.5,188C 232.759,183.047 226.926,178.214 221,173.5C 220.333,172.833 220.333,172.167 221,171.5C 222.376,170.295 223.542,168.962 224.5,167.5 Z"/></g>
<g><path style="opacity:1" fill="#ededed" d="M 231.5,162.5 C 232.376,162.369 233.043,162.702 233.5,163.5C 237.266,170.974 240.933,178.474 244.5,186C 242.255,185.805 240.422,184.638 239,182.5C 235.024,177.023 230.858,171.69 226.5,166.5C 228.21,165.113 229.877,163.779 231.5,162.5 Z"/></g>
<g><path style="opacity:1" fill="#ededed" d="M 261.5,159.5 C 264.316,159.544 266.649,160.544 268.5,162.5C 256.069,190.752 253.735,189.752 261.5,159.5 Z"/></g>
<g><path style="opacity:1" fill="#ebebeb" d="M 237.5,159.5 C 239.144,159.286 240.644,159.62 242,160.5C 243.421,167.018 244.921,173.518 246.5,180C 246.491,181.404 245.991,182.57 245,183.5C 241.356,176.379 237.856,169.213 234.5,162C 235.571,161.148 236.571,160.315 237.5,159.5 Z"/></g>
<g><path style="opacity:1" fill="#f3f3f3" d="M 252.5,157.5 C 254.764,158.219 257.097,158.552 259.5,158.5C 256.222,181.035 253.889,180.701 252.5,157.5 Z"/></g>
<g><path style="opacity:1" fill="#f1f1f1" d="M 248.5,157.5 C 249.765,158.514 250.431,160.014 250.5,162C 250.151,166.596 249.317,171.096 248,175.5C 245.865,170.049 244.365,164.382 243.5,158.5C 245.415,158.784 247.081,158.451 248.5,157.5 Z"/></g>
<g><path style="opacity:1" fill="#eff2f8" d="M 342.5,179.5 C 343.376,179.369 344.043,179.702 344.5,180.5C 341.31,192.424 336.976,203.758 331.5,214.5C 331.443,213.391 331.11,212.391 330.5,211.5C 333.94,200.62 337.94,189.954 342.5,179.5 Z"/></g>
<g><path style="opacity:1" fill="#17181c" d="M 332.5,180.5 C 331.833,181.167 331.167,181.833 330.5,182.5C 329.711,182.217 329.044,181.717 328.5,181C 329.793,180.51 331.127,180.343 332.5,180.5 Z"/></g>
<g><path style="opacity:1" fill="#e7e7e7" d="M 276.5,180.5 C 277.931,181.78 278.598,183.447 278.5,185.5C 273.849,188.501 268.849,190.334 263.5,191C 267.708,187.287 272.041,183.787 276.5,180.5 Z"/></g>
<g><path style="opacity:1" fill="#eeeeee" d="M 215.5,190.5 C 213.461,189.089 212.461,187.089 212.5,184.5C 212.811,183.522 213.478,182.855 214.5,182.5C 221.841,185.896 229.175,189.396 236.5,193C 235.391,193.638 234.225,194.138 233,194.5C 227.192,192.972 221.358,191.639 215.5,190.5 Z"/></g>
<g><path style="opacity:1" fill="#e6e6e6" d="M 278.5,187.5 C 280.201,188.211 281.201,189.545 281.5,191.5C 277.637,192.231 273.803,193.231 270,194.5C 268.941,194.37 268.108,193.87 267.5,193C 270.91,190.628 274.577,188.795 278.5,187.5 Z"/></g>
<g><path style="opacity:1" fill="#1a1a1a" d="M 321.5,187.5 C 324.219,189.219 326.219,191.553 327.5,194.5C 327.5,194.833 327.5,195.167 327.5,195.5C 326.167,194.833 325.167,193.833 324.5,192.5C 323.075,191.078 322.075,189.411 321.5,187.5 Z"/></g>
<g><path style="opacity:1" fill="#f5f5f5" d="M 215.5,192.5 C 219.553,193.013 223.553,193.846 227.5,195C 224.218,196.227 220.885,197.394 217.5,198.5C 216.262,196.786 215.595,194.786 215.5,192.5 Z"/></g>
<g><path style="opacity:1" fill="#d4d4d4" d="M 281.5,193.5 C 282.674,194.514 283.34,195.847 283.5,197.5C 279.944,197.358 276.61,196.524 273.5,195C 276.168,194.433 278.834,193.933 281.5,193.5 Z"/></g>
<g><path style="opacity:1" fill="#dde1e8" d="M 324.5,192.5 C 325.167,193.833 326.167,194.833 327.5,195.5C 327.34,197.153 326.674,198.486 325.5,199.5C 325.039,197.45 324.372,195.45 323.5,193.5C 323.624,192.893 323.957,192.56 324.5,192.5 Z"/></g>
<g><path style="opacity:1" fill="#2d2d2d" d="M 134.5,198.5 C 144.19,198.168 153.856,198.502 163.5,199.5C 158.667,199.833 153.833,200.167 149,200.5C 143.784,200.494 138.951,199.827 134.5,198.5 Z"/></g>
<g><path style="opacity:1" fill="#e8e8e8" d="M 221.5,208.5 C 224.385,208.194 227.052,208.527 229.5,209.5C 227.5,210.167 225.5,210.833 223.5,211.5C 221.952,211.179 221.285,210.179 221.5,208.5 Z"/></g>
<g><path style="opacity:1" fill="#efefef" d="M 237.5,209.5 C 233.183,212.486 229.183,215.82 225.5,219.5C 224.262,217.786 223.595,215.786 223.5,213.5C 226.622,212.439 229.622,211.105 232.5,209.5C 234.284,208.28 235.95,208.28 237.5,209.5 Z"/></g>
<g><path style="opacity:1" fill="#1c1c1c" d="M 240.5,209.5 C 235.833,213.167 231.167,216.833 226.5,220.5C 225.833,220.5 225.5,220.167 225.5,219.5C 229.183,215.82 233.183,212.486 237.5,209.5C 238.652,208.375 239.652,208.375 240.5,209.5 Z"/></g>
<g><path style="opacity:1" fill="#efefef" d="M 274.5,209.5 C 278.646,208.353 282.98,208.186 287.5,209C 289.016,210.897 289.683,213.064 289.5,215.5C 284.536,214.38 279.536,212.38 274.5,209.5 Z"/></g>
<g><path style="opacity:1" fill="#1e1e1e" d="M 232.5,209.5 C 229.622,211.105 226.622,212.439 223.5,213.5C 222.494,213.062 222.494,212.396 223.5,211.5C 225.5,210.833 227.5,210.167 229.5,209.5C 230.652,208.375 231.652,208.375 232.5,209.5 Z"/></g>
<g><path style="opacity:1" fill="#eeeeee" d="M 240.5,209.5 C 240.833,209.5 241.167,209.5 241.5,209.5C 237.191,215.482 232.858,221.482 228.5,227.5C 227.609,225.709 226.609,223.876 225.5,222C 226.056,221.617 226.389,221.117 226.5,220.5C 231.167,216.833 235.833,213.167 240.5,209.5 Z"/></g>
<g><path style="opacity:1" fill="#757576" d="M 172.5,210.5 C 174.463,215.103 176.463,219.77 178.5,224.5C 175.887,227.645 174.221,231.311 173.5,235.5C 172.494,236.396 172.494,237.062 173.5,237.5C 167.76,248.194 163.26,259.528 160,271.5C 151.178,302.173 162.678,316.84 194.5,315.5C 194.5,318.5 194.5,321.5 194.5,324.5C 167.158,323.216 139.825,323.216 112.5,324.5C 112.183,321.428 112.516,318.428 113.5,315.5C 124.55,311.618 133.05,304.618 139,294.5C 149.757,269.891 159.924,245.058 169.5,220C 169.272,219.601 168.938,219.435 168.5,219.5C 168.918,218.778 169.584,218.278 170.5,218C 169.906,217.536 169.239,217.369 168.5,217.5C 171.095,215.986 172.429,213.652 172.5,210.5 Z"/></g>
<g><path style="opacity:1" fill="#efefef" d="M 233.5,235.5 C 232.5,235.5 231.5,235.5 230.5,235.5C 230.528,233.418 229.861,231.584 228.5,230C 229.056,229.617 229.389,229.117 229.5,228.5C 233.834,223.329 238,217.995 242,212.5C 242.893,211.289 243.726,211.289 244.5,212.5C 240.547,220.071 236.88,227.738 233.5,235.5 Z"/></g>
<g><path style="opacity:1" fill="#707277" d="M 330.5,211.5 C 331.11,212.391 331.443,213.391 331.5,214.5C 325.273,233.523 318.273,252.189 310.5,270.5C 310.34,268.847 309.674,267.514 308.5,266.5C 315.595,247.991 322.928,229.658 330.5,211.5 Z"/></g>
<g><path style="opacity:1" fill="#f6f6f6" d="M 290.5,218.5 C 292.453,221.141 293.953,224.141 295,227.5C 295.494,229.134 295.66,230.801 295.5,232.5C 277.105,245.848 256.772,250.181 234.5,245.5C 233.545,243.254 232.878,240.921 232.5,238.5C 257.419,247.45 276.752,240.783 290.5,218.5 Z"/></g>
<g><path style="opacity:1" fill="#272727" d="M 339.5,218.5 C 343.264,219.12 346.931,220.12 350.5,221.5C 346.838,222.111 343.171,221.777 339.5,220.5C 339.5,219.833 339.5,219.167 339.5,218.5 Z"/></g>
<g><path style="opacity:1" fill="#1e1e1e" d="M 168.5,217.5 C 169.239,217.369 169.906,217.536 170.5,218C 169.584,218.278 168.918,218.778 168.5,219.5C 163.126,220.452 157.793,221.285 152.5,222C 157.54,219.572 162.874,218.072 168.5,217.5 Z"/></g>
<g><path style="opacity:1" fill="#eceef2" d="M 178.5,224.5 C 179.501,227.172 180.501,229.838 181.5,232.5C 178.833,233.5 176.167,234.5 173.5,235.5C 174.221,231.311 175.887,227.645 178.5,224.5 Z"/></g>
<g><path style="opacity:1" fill="#1d1d1d" d="M 244.5,209.5 C 248.219,215.713 250.719,222.379 252,229.5C 252.674,222.313 254.84,215.646 258.5,209.5C 259.652,208.375 260.652,208.375 261.5,209.5C 266.794,216.795 272.461,223.795 278.5,230.5C 280.316,229.185 281.983,227.685 283.5,226C 276.625,220.286 269.625,214.786 262.5,209.5C 263.348,208.375 264.348,208.375 265.5,209.5C 271.985,214.251 278.318,219.251 284.5,224.5C 286.226,222.772 287.559,220.772 288.5,218.5C 282.752,214.959 276.752,211.959 270.5,209.5C 271.705,208.314 273.039,208.314 274.5,209.5C 279.536,212.38 284.536,214.38 289.5,215.5C 290.404,216.209 290.737,217.209 290.5,218.5C 276.752,240.783 257.419,247.45 232.5,238.5C 232.389,237.883 232.056,237.383 231.5,237C 232.416,236.722 233.082,236.222 233.5,235.5C 236.88,227.738 240.547,220.071 244.5,212.5C 243.726,211.289 242.893,211.289 242,212.5C 238,217.995 233.834,223.329 229.5,228.5C 228.833,228.5 228.5,228.167 228.5,227.5C 232.858,221.482 237.191,215.482 241.5,209.5C 242.348,208.375 243.348,208.375 244.5,209.5 Z"/></g>
<g><path style="opacity:1" fill="#f1f1f1" d="M 255.5,221.5 C 257.57,227.558 258.904,233.892 259.5,240.5C 257.167,240.5 254.833,240.5 252.5,240.5C 252.462,233.967 253.462,227.634 255.5,221.5 Z"/></g>
<g><path style="opacity:1" fill="#f4f4f4" d="M 247.5,223.5 C 249.874,228.797 250.874,234.463 250.5,240.5C 248.167,240.5 245.833,240.5 243.5,240.5C 244.073,234.628 245.407,228.962 247.5,223.5 Z"/></g>
<g><path style="opacity:1" fill="#eeeeee" d="M 244.5,214.5 C 245.88,214.962 246.547,215.962 246.5,217.5C 245,224.499 243.5,231.499 242,238.5C 239.293,239.219 236.793,238.552 234.5,236.5C 238.399,229.372 241.733,222.039 244.5,214.5 Z"/></g>
<g><path style="opacity:1" fill="#efefef" d="M 257.5,214.5 C 261.664,221.494 265.33,228.827 268.5,236.5C 266.711,237.877 264.711,238.877 262.5,239.5C 259.201,231.342 257.534,223.009 257.5,214.5 Z"/></g>
<g><path style="opacity:1" fill="#eaeaea" d="M 259.5,211.5 C 265.492,218.167 271.159,225.167 276.5,232.5C 274.807,234.027 272.973,235.36 271,236.5C 266.071,228.643 262.237,220.31 259.5,211.5 Z"/></g>
<g><path style="opacity:1" fill="#f2f2f2" d="M 261.5,209.5 C 261.833,209.5 262.167,209.5 262.5,209.5C 269.625,214.786 276.625,220.286 283.5,226C 281.983,227.685 280.316,229.185 278.5,230.5C 272.461,223.795 266.794,216.795 261.5,209.5 Z"/></g>
<g><path style="opacity:1" fill="#ececec" d="M 265.5,209.5 C 267.05,208.28 268.716,208.28 270.5,209.5C 276.752,211.959 282.752,214.959 288.5,218.5C 287.559,220.772 286.226,222.772 284.5,224.5C 278.318,219.251 271.985,214.251 265.5,209.5 Z"/></g>
<g><path style="opacity:1" fill="#f2f2f2" d="M 258.5,209.5 C 254.84,215.646 252.674,222.313 252,229.5C 250.719,222.379 248.219,215.713 244.5,209.5C 249.167,208.167 253.833,208.167 258.5,209.5 Z"/></g>
<g><path style="opacity:1" fill="#747474" d="M 336.5,227.5 C 344.595,247.363 352.428,267.363 360,287.5C 363.271,297.558 369.104,305.724 377.5,312C 381.485,314.495 385.818,315.662 390.5,315.5C 390.5,318.5 390.5,321.5 390.5,324.5C 360.18,323.573 329.847,323.24 299.5,323.5C 299.905,320.285 300.905,317.285 302.5,314.5C 314.855,313.323 320.355,306.657 319,294.5C 317.928,290.453 316.761,286.453 315.5,282.5C 321.693,263.794 328.693,245.461 336.5,227.5 Z"/></g>
<g><path style="opacity:1" fill="#1c1c1c" d="M 181.5,232.5 C 181.5,233.167 181.5,233.833 181.5,234.5C 178.833,235.5 176.167,236.5 173.5,237.5C 172.494,237.062 172.494,236.396 173.5,235.5C 176.167,234.5 178.833,233.5 181.5,232.5 Z"/></g>
<g><path style="opacity:1" fill="#fbfbfb" d="M 296.5,233.5 C 299.679,239.874 302.346,246.54 304.5,253.5C 304.267,256.542 303.267,259.208 301.5,261.5C 298.626,256.446 295.126,251.78 291,247.5C 290.833,248 290.667,248.5 290.5,249C 293.639,253.968 297.305,258.468 301.5,262.5C 299.069,269.678 296.402,276.678 293.5,283.5C 288.648,273.467 283.482,263.467 278,253.5C 277.878,255.169 278.212,256.835 279,258.5C 283.546,267.592 288.046,276.592 292.5,285.5C 285.507,304.156 278.507,322.823 271.5,341.5C 264.596,324.795 258.262,307.795 252.5,290.5C 252.832,279.813 252.499,269.146 251.5,258.5C 250.502,267.475 250.168,276.475 250.5,285.5C 245.129,273.067 240.129,260.401 235.5,247.5C 257.978,251.89 278.311,247.224 296.5,233.5 Z"/></g>
<g><path style="opacity:1" fill="#222222" d="M 295.5,232.5 C 296.167,232.5 296.5,232.833 296.5,233.5C 278.311,247.224 257.978,251.89 235.5,247.5C 235.167,246.833 234.833,246.167 234.5,245.5C 256.772,250.181 277.105,245.848 295.5,232.5 Z"/></g>
<g><path style="opacity:1" fill="#1e1e1e" d="M 301.5,261.5 C 301.5,261.833 301.5,262.167 301.5,262.5C 297.305,258.468 293.639,253.968 290.5,249C 290.667,248.5 290.833,248 291,247.5C 295.126,251.78 298.626,256.446 301.5,261.5 Z"/></g>
<g><path style="opacity:1" fill="#242525" d="M 187.5,249.5 C 187.833,250.167 188.167,250.833 188.5,251.5C 178.374,256.896 178.04,256.23 187.5,249.5 Z"/></g>
<g><path style="opacity:1" fill="#1a1a1a" d="M 252.5,290.5 C 251.069,289.22 250.402,287.553 250.5,285.5C 250.168,276.475 250.502,267.475 251.5,258.5C 252.499,269.146 252.832,279.813 252.5,290.5 Z"/></g>
<g><path style="opacity:1" fill="#1e1e1e" d="M 293.5,283.5 C 293.672,284.492 293.338,285.158 292.5,285.5C 288.046,276.592 283.546,267.592 279,258.5C 278.212,256.835 277.878,255.169 278,253.5C 283.482,263.467 288.648,273.467 293.5,283.5 Z"/></g>
<g><path style="opacity:1" fill="#24272c" d="M 308.5,268.5 C 308.804,269.15 309.137,269.817 309.5,270.5C 308.743,271.773 308.077,271.773 307.5,270.5C 307.328,269.508 307.662,268.842 308.5,268.5 Z"/></g>
<g><path style="opacity:1" fill="#31353b" d="M 194.5,267.5 C 195.404,268.209 195.737,269.209 195.5,270.5C 195.103,271.525 194.437,271.692 193.5,271C 194.337,269.989 194.67,268.822 194.5,267.5 Z"/></g>
<g><path style="opacity:1" fill="#f1f4f8" d="M 308.5,266.5 C 309.674,267.514 310.34,268.847 310.5,270.5C 305.109,285.17 299.609,299.837 294,314.5C 292.708,315.791 291.542,315.791 290.5,314.5C 295.647,299.555 301.314,284.888 307.5,270.5C 308.077,271.773 308.743,271.773 309.5,270.5C 309.137,269.817 308.804,269.15 308.5,268.5C 308.5,267.833 308.5,267.167 308.5,266.5 Z"/></g>
<g><path style="opacity:1" fill="#f9f9f9" d="M 315.5,282.5 C 316.761,286.453 317.928,290.453 319,294.5C 320.355,306.657 314.855,313.323 302.5,314.5C 306.071,303.436 310.405,292.77 315.5,282.5 Z"/></g>
<g><path style="opacity:1" fill="#202020" d="M 264.5,257.5 C 265.117,257.611 265.617,257.944 266,258.5C 269.992,274.8 273.825,291.133 277.5,307.5C 277.167,308.167 276.833,308.833 276.5,309.5C 271.646,292.385 267.646,275.051 264.5,257.5 Z"/></g>
<g><path style="opacity:1" fill="#f2f4f9" d="M 287.5,320.5 C 288.775,322.608 289.275,324.942 289,327.5C 285.382,337.693 281.382,347.693 277,357.5C 276.59,356.099 276.09,354.766 275.5,353.5C 279.215,342.402 283.215,331.402 287.5,320.5 Z"/></g>
<g><path style="opacity:1" fill="#8cacd9" d="M 255.5,404.5 C 254.848,405.725 253.681,406.392 252,406.5C 250.615,406.486 249.449,406.152 248.5,405.5C 250.95,405.702 253.283,405.369 255.5,404.5 Z"/></g>
<g><path style="opacity:1" fill="#6e6e6e" d="M 180.5,414.5 C 178.167,413.167 175.833,413.167 173.5,414.5C 172.325,414.719 171.325,414.386 170.5,413.5C 174.795,412.339 179.129,412.172 183.5,413C 182.473,413.513 181.473,414.013 180.5,414.5 Z"/></g>
<g><path style="opacity:1" fill="#707070" d="M 198.5,414.5 C 197.167,413.167 195.833,413.167 194.5,414.5C 193.244,414.539 192.244,414.039 191.5,413C 194.882,412.176 198.216,412.343 201.5,413.5C 200.675,414.386 199.675,414.719 198.5,414.5 Z"/></g>
<g><path style="opacity:1" fill="#6c6c6c" d="M 222.5,413.5 C 222.5,413.833 222.5,414.167 222.5,414.5C 219.873,413.908 217.206,413.575 214.5,413.5C 211.941,413.198 209.607,413.532 207.5,414.5C 206.325,414.719 205.325,414.386 204.5,413.5C 210.654,412.183 216.654,412.183 222.5,413.5 Z"/></g>
<g><path style="opacity:1" fill="#6f6f6f" d="M 249.5,414.5 C 247.167,413.167 244.833,413.167 242.5,414.5C 241.624,414.631 240.957,414.298 240.5,413.5C 244.5,412.167 248.5,412.167 252.5,413.5C 251.675,414.386 250.675,414.719 249.5,414.5 Z"/></g>
<g><path style="opacity:1" fill="#858585" d="M 275.5,412.5 C 274.833,412.5 274.5,412.833 274.5,413.5C 273.167,413.5 271.833,413.5 270.5,413.5C 270.5,413.167 270.5,412.833 270.5,412.5C 272.167,411.167 273.833,411.167 275.5,412.5 Z"/></g>
<g><path style="opacity:1" fill="#6f6f6f" d="M 336.5,414.5 C 334.167,413.167 331.833,413.167 329.5,414.5C 328.325,414.719 327.325,414.386 326.5,413.5C 330.795,412.339 335.129,412.172 339.5,413C 338.473,413.513 337.473,414.013 336.5,414.5 Z"/></g>
<g><path style="opacity:1" fill="#6f6f6f" d="M 355.5,414.5 C 353.833,413.167 352.167,413.167 350.5,414.5C 349.711,414.217 349.044,413.717 348.5,413C 351.554,412.179 354.554,412.345 357.5,413.5C 357.043,414.298 356.376,414.631 355.5,414.5 Z"/></g>
<g><path style="opacity:1" fill="#6f6f6f" d="M 370.5,414.5 C 368.167,413.167 365.833,413.167 363.5,414.5C 362.624,414.631 361.957,414.298 361.5,413.5C 365.5,412.167 369.5,412.167 373.5,413.5C 372.675,414.386 371.675,414.719 370.5,414.5 Z"/></g>
<g><path style="opacity:1" fill="#1a1a1a" d="M 146.5,431.5 C 148.118,424.812 150.618,418.479 154,412.5C 158.196,422.755 162.196,433.088 166,443.5C 166.5,445.333 167.667,446.5 169.5,447C 165.5,447.667 161.5,447.667 157.5,447C 159.573,446.882 160.907,445.882 161.5,444C 160.338,440.853 159.338,437.686 158.5,434.5C 154.167,434.5 149.833,434.5 145.5,434.5C 144.842,437.156 144.175,439.822 143.5,442.5C 143.231,445.399 144.565,446.899 147.5,447C 144.167,447.667 140.833,447.667 137.5,447C 138.416,446.626 139.25,446.126 140,445.5C 141.942,440.623 144.108,435.956 146.5,431.5 Z"/></g>
<g><path style="opacity:1" fill="#1d1d1d" d="M 173.5,414.5 C 175.833,413.167 178.167,413.167 180.5,414.5C 179.343,423.324 179.176,432.324 180,441.5C 182.831,446.737 186.997,447.903 192.5,445C 193.701,444.097 194.535,442.931 195,441.5C 196.542,432.896 196.876,424.23 196,415.5C 195.617,414.944 195.117,414.611 194.5,414.5C 195.833,413.167 197.167,413.167 198.5,414.5C 197.918,423.731 197.085,433.064 196,442.5C 191.313,448.935 185.479,450.102 178.5,446C 177.299,445.097 176.465,443.931 176,442.5C 174.915,433.064 174.082,423.731 173.5,414.5 Z"/></g>
<g><path style="opacity:1" fill="#171717" d="M 207.5,414.5 C 209.607,413.532 211.941,413.198 214.5,413.5C 213.358,424.09 213.192,434.757 214,445.5C 216.405,446.274 218.905,446.774 221.5,447C 215.833,447.667 210.167,447.667 204.5,447C 205.766,446.691 206.933,446.191 208,445.5C 208.825,434.992 208.659,424.658 207.5,414.5 Z"/></g>
<g><path style="opacity:1" fill="#050505" d="M 242.5,414.5 C 244.833,413.167 247.167,413.167 249.5,414.5C 248.341,424.658 248.175,434.992 249,445.5C 250.067,446.191 251.234,446.691 252.5,447C 248.5,447.667 244.5,447.667 240.5,447C 241.931,446.535 243.097,445.701 244,444.5C 244.667,434.833 244.667,425.167 244,415.5C 243.617,414.944 243.117,414.611 242.5,414.5 Z"/></g>
<g><path style="opacity:1" fill="#fafafa" d="M 270.5,413.5 C 271.833,413.5 273.167,413.5 274.5,413.5C 279.12,414.692 281.953,417.692 283,422.5C 283.961,429.336 283.295,436.003 281,442.5C 279.629,444.041 278.129,445.375 276.5,446.5C 274.451,447.641 272.451,447.641 270.5,446.5C 268.284,445.797 266.451,444.464 265,442.5C 262.098,434.967 261.765,427.3 264,419.5C 265.406,416.591 267.572,414.591 270.5,413.5 Z"/></g>
<g><path style="opacity:1" fill="#141414" d="M 274.5,413.5 C 274.5,412.833 274.833,412.5 275.5,412.5C 284.375,414.547 288.709,420.214 288.5,429.5C 288.783,438.521 284.783,444.521 276.5,447.5C 276.5,447.167 276.5,446.833 276.5,446.5C 278.129,445.375 279.629,444.041 281,442.5C 283.295,436.003 283.961,429.336 283,422.5C 281.953,417.692 279.12,414.692 274.5,413.5 Z"/></g>
<g><path style="opacity:1" fill="#161616" d="M 329.5,414.5 C 331.833,413.167 334.167,413.167 336.5,414.5C 335.343,423.324 335.176,432.324 336,441.5C 336.997,443.323 338.164,444.99 339.5,446.5C 338.833,446.5 338.5,446.833 338.5,447.5C 334.51,446.34 332.01,443.674 331,439.5C 330.829,430.99 330.329,422.657 329.5,414.5 Z"/></g>
<g><path style="opacity:1" fill="#050505" d="M 363.5,414.5 C 365.833,413.167 368.167,413.167 370.5,414.5C 369.341,424.658 369.175,434.992 370,445.5C 371.067,446.191 372.234,446.691 373.5,447C 369.5,447.667 365.5,447.667 361.5,447C 362.931,446.535 364.097,445.701 365,444.5C 365.667,434.833 365.667,425.167 365,415.5C 364.617,414.944 364.117,414.611 363.5,414.5 Z"/></g>
<g><path style="opacity:1" fill="#1a1a1a" d="M 385.5,427.5 C 385.167,429.5 384.833,431.5 384.5,433.5C 387.833,433.5 391.167,433.5 394.5,433.5C 393.667,428.836 392,424.503 389.5,420.5C 388.818,421.243 388.151,421.909 387.5,422.5C 388.36,419.089 389.526,415.756 391,412.5C 395.868,422.91 400.202,433.576 404,444.5C 404.833,445.333 405.667,446.167 406.5,447C 401.557,447.961 398.89,447.795 398.5,446.5C 398.395,442.681 397.562,439.014 396,435.5C 385.905,431.831 380.905,435.164 381,445.5C 382.067,446.191 383.234,446.691 384.5,447C 381.5,447.667 378.5,447.667 375.5,447C 376.333,446.167 377.167,445.333 378,444.5C 380.232,438.607 382.732,432.941 385.5,427.5 Z"/></g>
<g><path style="opacity:1" fill="#131313" d="M 222.5,414.5 C 222.5,414.167 222.5,413.833 222.5,413.5C 231.199,415.206 235.533,420.539 235.5,429.5C 235.598,437.145 232.265,442.645 225.5,446C 224.5,446.667 223.5,446.667 222.5,446C 228.944,442.724 231.61,437.39 230.5,430C 231.687,422.666 229.02,417.499 222.5,414.5 Z"/></g>
<g><path style="opacity:1" fill="#131313" d="M 270.5,412.5 C 270.5,412.833 270.5,413.167 270.5,413.5C 267.572,414.591 265.406,416.591 264,419.5C 261.765,427.3 262.098,434.967 265,442.5C 266.451,444.464 268.284,445.797 270.5,446.5C 270.158,447.338 269.492,447.672 268.5,447.5C 260.534,444.501 256.867,438.668 257.5,430C 257.144,424.879 258.644,420.379 262,416.5C 264.397,414.218 267.231,412.884 270.5,412.5 Z"/></g>
<g><path style="opacity:1" fill="#1b1b1b" d="M 306.5,446.5 C 306.5,447.167 306.167,447.5 305.5,447.5C 299.616,446.119 295.783,442.453 294,436.5C 291.722,424.887 295.889,416.72 306.5,412C 308.5,411.333 310.5,411.333 312.5,412C 315.11,413.481 317.777,414.648 320.5,415.5C 321.752,416.31 321.919,419.31 321,424.5C 318.114,413.555 311.78,410.889 302,416.5C 297.773,425.015 297.439,433.682 301,442.5C 302.451,444.464 304.284,445.797 306.5,446.5 Z"/></g>
<g><path style="opacity:1" fill="#0c0c0c" d="M 350.5,414.5 C 352.167,413.167 353.833,413.167 355.5,414.5C 354.883,414.611 354.383,414.944 354,415.5C 353.5,422.826 353.334,430.159 353.5,437.5C 353.167,437.5 352.833,437.5 352.5,437.5C 352.666,430.159 352.5,422.826 352,415.5C 351.617,414.944 351.117,414.611 350.5,414.5 Z"/></g>
<g><path style="opacity:1" fill="#f1f1f1" d="M 146.5,431.5 C 148.558,427.71 150.391,423.71 152,419.5C 153.931,423.793 155.764,428.126 157.5,432.5C 155.667,432.833 153.833,433.167 152,433.5C 149.705,433.453 147.871,432.787 146.5,431.5 Z"/></g>
<g><path style="opacity:1" fill="#f1f1f1" d="M 385.5,427.5 C 386.931,426.22 387.598,424.553 387.5,422.5C 388.151,421.909 388.818,421.243 389.5,420.5C 392,424.503 393.667,428.836 394.5,433.5C 391.167,433.5 387.833,433.5 384.5,433.5C 384.833,431.5 385.167,429.5 385.5,427.5 Z"/></g>
<g><path style="opacity:1" fill="#535353" d="M 387.5,422.5 C 387.598,424.553 386.931,426.22 385.5,427.5C 385.402,425.447 386.069,423.78 387.5,422.5 Z"/></g>
<g><path style="opacity:1" fill="#1c1c1c" d="M 316.5,445.5 C 316.823,441.774 316.489,438.107 315.5,434.5C 314.205,433.902 312.872,433.402 311.5,433C 315.5,432.333 319.5,432.333 323.5,433C 323,433.5 322.5,434 322,434.5C 321.667,438.833 321.333,443.167 321,447.5C 320.302,444.589 318.802,443.923 316.5,445.5 Z"/></g>
<g><path style="opacity:1" fill="#333333" d="M 352.5,437.5 C 352.833,437.5 353.167,437.5 353.5,437.5C 351.844,446.147 346.844,449.481 338.5,447.5C 338.5,446.833 338.833,446.5 339.5,446.5C 346.903,447.65 351.237,444.65 352.5,437.5 Z"/></g>
<g><path style="opacity:1" fill="#707070" d="M 270.5,446.5 C 272.451,447.641 274.451,447.641 276.5,446.5C 276.5,446.833 276.5,447.167 276.5,447.5C 273.728,448.767 271.061,448.767 268.5,447.5C 269.492,447.672 270.158,447.338 270.5,446.5 Z"/></g>
<g><path style="opacity:1" fill="#797979" d="M 316.5,445.5 C 315.653,446.966 314.32,447.8 312.5,448C 309.961,448.796 307.628,448.629 305.5,447.5C 306.167,447.5 306.5,447.167 306.5,446.5C 309.902,446.658 313.236,446.324 316.5,445.5 Z"/></g>
<g><path style="opacity:1" fill="#949494" d="M 206.5,466.5 C 205.167,465.167 203.833,465.167 202.5,466.5C 201.957,466.44 201.624,466.107 201.5,465.5C 203.765,464.353 206.098,464.186 208.5,465C 207.956,465.717 207.289,466.217 206.5,466.5 Z"/></g>
<g><path style="opacity:1" fill="#959595" d="M 254.5,466.5 C 253.167,465.167 251.833,465.167 250.5,466.5C 249.711,466.217 249.044,465.717 248.5,465C 251.167,464.333 253.833,464.333 256.5,465C 255.956,465.717 255.289,466.217 254.5,466.5 Z"/></g>
<g><path style="opacity:1" fill="#151515" d="M 202.5,466.5 C 203.833,465.167 205.167,465.167 206.5,466.5C 208.207,472.253 210.207,477.919 212.5,483.5C 212,484.5 211.5,485.5 211,486.5C 208.434,479.61 205.601,472.943 202.5,466.5 Z"/></g>
<g><path style="opacity:1" fill="#9b9b9b" d="M 227.5,466.5 C 226.5,465.167 225.5,465.167 224.5,466.5C 222.801,466.34 221.134,466.506 219.5,467C 218.671,468.816 217.837,470.649 217,472.5C 216.504,470.965 216.67,469.465 217.5,468C 217.241,466.739 216.574,465.739 215.5,465C 220.167,464.333 224.833,464.333 229.5,465C 228.956,465.717 228.289,466.217 227.5,466.5 Z"/></g>
<g><path style="opacity:1" fill="#131313" d="M 227.5,466.5 C 226.899,473.289 227.566,479.789 229.5,486C 227.167,486.667 224.833,486.667 222.5,486C 224.434,479.789 225.101,473.289 224.5,466.5C 225.5,465.167 226.5,465.167 227.5,466.5 Z"/></g>
<g><path style="opacity:1" fill="#212121" d="M 250.5,466.5 C 251.833,465.167 253.167,465.167 254.5,466.5C 253.899,473.289 254.566,479.789 256.5,486C 251.623,486.894 249.956,486.728 251.5,485.5C 251.823,478.978 251.49,472.645 250.5,466.5 Z"/></g>
<g><path style="opacity:1" fill="#151515" d="M 283.5,466.5 C 284.708,465.218 286.042,465.218 287.5,466.5C 290.526,471.184 293.526,475.851 296.5,480.5C 297.72,482.284 297.72,483.95 296.5,485.5C 292.859,479.205 288.859,473.205 284.5,467.5C 284.5,466.833 284.167,466.5 283.5,466.5 Z"/></g>
<g><path style="opacity:1" fill="#171717" d="M 242.5,467.5 C 242.56,466.957 242.893,466.624 243.5,466.5C 244.583,467.365 244.749,468.365 244,469.5C 243.722,468.584 243.222,467.918 242.5,467.5 Z"/></g>
<g><path style="opacity:1" fill="#181818" d="M 234.5,465.5 C 235.239,465.369 235.906,465.536 236.5,466C 235.233,467.796 235.233,469.629 236.5,471.5C 239.649,473.486 242.483,475.819 245,478.5C 246.168,481.893 245.334,484.559 242.5,486.5C 241.495,485.89 241.662,485.224 243,484.5C 243.667,483.167 243.667,481.833 243,480.5C 239.651,478.147 236.651,475.48 234,472.5C 233.297,470.071 233.463,467.738 234.5,465.5 Z"/></g>
<g><path style="opacity:1" fill="#202020" d="M 265.5,464.5 C 277.564,464.928 281.397,470.928 277,482.5C 275.578,484.638 273.745,485.805 271.5,486C 275.122,481.489 276.289,476.322 275,470.5C 271,463.833 267,463.833 263,470.5C 262.063,475.403 262.73,480.07 265,484.5C 268.36,486.051 268.193,486.551 264.5,486C 259.997,482.155 258.497,477.322 260,471.5C 260.967,468.379 262.8,466.046 265.5,464.5 Z"/></g>
<g><path style="opacity:1" fill="#6b6b6b" d="M 283.5,466.5 C 284.167,466.5 284.5,466.833 284.5,467.5C 284.5,473.5 284.5,479.5 284.5,485.5C 287.263,486.455 286.263,486.622 281.5,486C 283.434,479.789 284.101,473.289 283.5,466.5 Z"/></g>
<g><path style="opacity:1" fill="#636363" d="M 296.5,485.5 C 297.72,483.95 297.72,482.284 296.5,480.5C 297.812,475.985 297.812,471.318 296.5,466.5C 295.692,466.192 295.025,465.692 294.5,465C 296.5,464.333 298.5,464.333 300.5,465C 300,465.5 299.5,466 299,466.5C 298.831,473.191 298.331,479.858 297.5,486.5C 296.893,486.376 296.56,486.043 296.5,485.5 Z"/></g>
<g><path style="opacity:1" fill="#838383" d="M 234.5,482.5 C 233.596,483.209 233.263,484.209 233.5,485.5C 232.238,484.268 232.238,482.268 233.5,479.5C 234.386,480.325 234.719,481.325 234.5,482.5 Z"/></g>
<g><path style="opacity:1" fill="#080808" d="M 234.5,482.5 C 234.414,483.496 234.748,484.329 235.5,485C 234.906,485.464 234.239,485.631 233.5,485.5C 233.263,484.209 233.596,483.209 234.5,482.5 Z"/></g>
</svg>
